<?xml version="1.0" encoding="utf-8"?>
<!-- Generator: Adobe Illustrator 16.0.0, SVG Export Plug-In . SVG Version: 6.00 Build 0)  -->
<!DOCTYPE svg PUBLIC "-//W3C//DTD SVG 1.1//EN" "http://www.w3.org/Graphics/SVG/1.1/DTD/svg11.dtd">
<svg version="1.1" id="Layer_1" xmlns="http://www.w3.org/2000/svg" xmlns:xlink="http://www.w3.org/1999/xlink" x="0px" y="0px"
	 width="864px" height="278px" viewBox="0 0 864 278" enable-background="new 0 0 864 278" xml:space="preserve">
<g>
	<path d="M24.616,32.982h-1.758V21.781c-0.423,0.404-0.978,0.808-1.665,1.211c-0.687,0.404-1.304,0.707-1.851,0.908v-1.699
		c0.983-0.462,1.842-1.021,2.578-1.68c0.736-0.657,1.256-1.295,1.563-1.914h1.133V32.982z"/>
	<path d="M30.104,32.982V30.98h2.002v2.002H30.104z"/>
	<path d="M40.3,28.383l1.787-0.156c0.084,0.717,0.282,1.305,0.591,1.764s0.79,0.83,1.44,1.113s1.383,0.424,2.197,0.424
		c0.723,0,1.361-0.107,1.914-0.322s0.965-0.509,1.235-0.883c0.27-0.375,0.405-0.783,0.405-1.227c0-0.449-0.13-0.841-0.391-1.176
		c-0.26-0.336-0.69-0.617-1.289-0.846c-0.384-0.149-1.234-0.382-2.549-0.697c-1.315-0.316-2.236-0.614-2.764-0.895
		c-0.684-0.357-1.193-0.802-1.528-1.332c-0.335-0.531-0.503-1.125-0.503-1.783c0-0.723,0.205-1.397,0.615-2.025
		c0.41-0.629,1.009-1.105,1.797-1.432c0.788-0.325,1.664-0.488,2.627-0.488c1.061,0,1.997,0.172,2.808,0.514s1.434,0.844,1.87,1.508
		s0.67,1.416,0.703,2.256l-1.816,0.137c-0.098-0.904-0.428-1.588-0.991-2.051c-0.563-0.462-1.395-0.693-2.495-0.693
		c-1.146,0-1.981,0.211-2.505,0.631s-0.786,0.926-0.786,1.518c0,0.515,0.186,0.938,0.557,1.27c0.365,0.332,1.317,0.673,2.856,1.021
		c1.54,0.348,2.596,0.652,3.169,0.912c0.833,0.385,1.449,0.871,1.846,1.461c0.397,0.589,0.596,1.268,0.596,2.035
		c0,0.762-0.218,1.48-0.654,2.154s-1.063,1.197-1.88,1.572c-0.817,0.374-1.737,0.561-2.759,0.561c-1.295,0-2.381-0.188-3.257-0.566
		c-0.875-0.377-1.563-0.945-2.061-1.703C40.588,30.198,40.326,29.34,40.3,28.383z"/>
	<path d="M61.159,29.643l1.816,0.225c-0.287,1.062-0.817,1.885-1.592,2.471s-1.764,0.879-2.969,0.879c-1.517,0-2.72-0.467-3.608-1.4
		c-0.889-0.935-1.333-2.245-1.333-3.932c0-1.744,0.449-3.099,1.348-4.063c0.898-0.963,2.064-1.445,3.496-1.445
		c1.387,0,2.52,0.473,3.398,1.416c0.879,0.944,1.318,2.272,1.318,3.984c0,0.104-0.003,0.261-0.01,0.469H55.29
		c0.065,1.14,0.387,2.012,0.967,2.617s1.302,0.908,2.168,0.908c0.645,0,1.195-0.169,1.65-0.508
		C60.531,30.926,60.892,30.385,61.159,29.643z M55.388,26.801h5.791c-0.078-0.872-0.299-1.526-0.664-1.963
		c-0.56-0.677-1.286-1.016-2.178-1.016c-0.807,0-1.486,0.271-2.036,0.811C55.75,25.174,55.446,25.896,55.388,26.801z"/>
	<path d="M65.144,32.982V18.666h1.758v14.316H65.144z"/>
	<path d="M76.726,29.643l1.816,0.225c-0.287,1.062-0.817,1.885-1.592,2.471s-1.764,0.879-2.969,0.879c-1.517,0-2.72-0.467-3.608-1.4
		c-0.889-0.935-1.333-2.245-1.333-3.932c0-1.744,0.449-3.099,1.348-4.063c0.898-0.963,2.064-1.445,3.496-1.445
		c1.387,0,2.52,0.473,3.398,1.416c0.879,0.944,1.318,2.272,1.318,3.984c0,0.104-0.003,0.261-0.01,0.469h-7.734
		c0.065,1.14,0.387,2.012,0.967,2.617s1.302,0.908,2.168,0.908c0.645,0,1.195-0.169,1.65-0.508
		C76.097,30.926,76.458,30.385,76.726,29.643z M70.954,26.801h5.791c-0.078-0.872-0.299-1.526-0.664-1.963
		c-0.56-0.677-1.286-1.016-2.178-1.016c-0.807,0-1.486,0.271-2.036,0.811C71.317,25.174,71.013,25.896,70.954,26.801z"/>
	<path d="M87.517,29.184l1.729,0.225c-0.189,1.191-0.672,2.125-1.45,2.799s-1.733,1.01-2.866,1.01c-1.419,0-2.56-0.463-3.423-1.391
		s-1.294-2.258-1.294-3.99c0-1.119,0.186-2.1,0.557-2.939s0.936-1.469,1.694-1.889s1.583-0.631,2.476-0.631
		c1.126,0,2.047,0.285,2.764,0.855c0.716,0.569,1.175,1.378,1.377,2.426l-1.709,0.264c-0.163-0.696-0.451-1.221-0.864-1.572
		s-0.913-0.527-1.499-0.527c-0.885,0-1.605,0.318-2.158,0.953s-0.83,1.639-0.83,3.012c0,1.394,0.267,2.406,0.801,3.037
		c0.534,0.632,1.23,0.947,2.09,0.947c0.69,0,1.266-0.211,1.729-0.635C87.1,30.714,87.393,30.063,87.517,29.184z"/>
	<path d="M94.587,31.41l0.254,1.553c-0.495,0.104-0.938,0.156-1.328,0.156c-0.638,0-1.133-0.101-1.484-0.303
		c-0.352-0.201-0.599-0.467-0.742-0.795c-0.143-0.329-0.215-1.021-0.215-2.076v-5.967h-1.289v-1.367h1.289v-2.568l1.748-1.055v3.623
		h1.768v1.367h-1.768v6.064c0,0.502,0.031,0.824,0.093,0.967c0.062,0.144,0.163,0.258,0.303,0.342
		c0.14,0.085,0.34,0.127,0.601,0.127C94.011,31.479,94.268,31.456,94.587,31.41z"/>
	<path d="M108.786,27.367v-1.68l6.064-0.01v5.313c-0.931,0.742-1.891,1.301-2.881,1.676c-0.99,0.374-2.005,0.561-3.047,0.561
		c-1.406,0-2.684-0.301-3.833-0.902c-1.149-0.603-2.017-1.474-2.603-2.613c-0.586-1.139-0.879-2.412-0.879-3.818
		c0-1.393,0.292-2.693,0.874-3.9c0.583-1.208,1.421-2.105,2.515-2.691s2.354-0.879,3.779-0.879c1.035,0,1.971,0.168,2.808,0.504
		c0.836,0.335,1.493,0.802,1.968,1.4c0.475,0.6,0.836,1.381,1.084,2.344l-1.709,0.469c-0.215-0.729-0.482-1.302-0.801-1.719
		c-0.319-0.416-0.775-0.75-1.367-1c-0.592-0.251-1.25-0.377-1.973-0.377c-0.866,0-1.615,0.133-2.246,0.396s-1.141,0.609-1.528,1.039
		s-0.688,0.902-0.903,1.416c-0.365,0.886-0.547,1.846-0.547,2.881c0,1.276,0.22,2.344,0.659,3.203s1.079,1.498,1.919,1.914
		c0.84,0.417,1.732,0.625,2.676,0.625c0.82,0,1.621-0.157,2.402-0.473c0.781-0.316,1.374-0.653,1.777-1.012v-2.666H108.786z"/>
	<path d="M124.519,29.643l1.816,0.225c-0.287,1.062-0.817,1.885-1.592,2.471s-1.764,0.879-2.969,0.879
		c-1.517,0-2.72-0.467-3.608-1.4c-0.889-0.935-1.333-2.245-1.333-3.932c0-1.744,0.449-3.099,1.348-4.063
		c0.898-0.963,2.064-1.445,3.496-1.445c1.387,0,2.52,0.473,3.398,1.416c0.879,0.944,1.318,2.272,1.318,3.984
		c0,0.104-0.003,0.261-0.01,0.469h-7.734c0.065,1.14,0.387,2.012,0.967,2.617s1.302,0.908,2.168,0.908
		c0.645,0,1.195-0.169,1.65-0.508C123.89,30.926,124.251,30.385,124.519,29.643z M118.747,26.801h5.791
		c-0.078-0.872-0.299-1.526-0.664-1.963c-0.56-0.677-1.286-1.016-2.178-1.016c-0.807,0-1.486,0.271-2.036,0.811
		C119.11,25.174,118.806,25.896,118.747,26.801z"/>
	<path d="M127.888,27.797c0-1.92,0.534-3.343,1.602-4.268c0.892-0.768,1.979-1.152,3.262-1.152c1.426,0,2.591,0.468,3.496,1.402
		c0.905,0.934,1.357,2.225,1.357,3.871c0,1.335-0.2,2.385-0.601,3.15c-0.4,0.765-0.983,1.358-1.748,1.781
		c-0.765,0.424-1.6,0.635-2.505,0.635c-1.452,0-2.625-0.465-3.521-1.396C128.335,30.89,127.888,29.549,127.888,27.797z
		 M129.694,27.797c0,1.328,0.29,2.323,0.869,2.984c0.58,0.66,1.309,0.99,2.188,0.99c0.873,0,1.598-0.332,2.178-0.996
		s0.869-1.676,0.869-3.037c0-1.282-0.292-2.254-0.874-2.914c-0.583-0.661-1.307-0.992-2.173-0.992c-0.879,0-1.608,0.329-2.188,0.986
		C129.984,25.477,129.694,26.469,129.694,27.797z"/>
	<path d="M139.665,32.982V22.611h1.572v1.455c0.326-0.508,0.758-0.916,1.299-1.225c0.541-0.31,1.156-0.465,1.846-0.465
		c0.768,0,1.398,0.16,1.89,0.479c0.492,0.319,0.838,0.766,1.04,1.338c0.82-1.211,1.888-1.816,3.203-1.816
		c1.029,0,1.82,0.285,2.373,0.855c0.553,0.569,0.83,1.446,0.83,2.631v7.119h-1.748v-6.533c0-0.703-0.057-1.209-0.171-1.518
		c-0.114-0.31-0.321-0.559-0.62-0.748c-0.299-0.188-0.651-0.283-1.055-0.283c-0.729,0-1.334,0.243-1.816,0.729
		c-0.482,0.484-0.723,1.261-0.723,2.328v6.025h-1.758v-6.738c0-0.781-0.143-1.367-0.43-1.758s-0.755-0.586-1.406-0.586
		c-0.495,0-0.952,0.131-1.372,0.391c-0.42,0.261-0.724,0.642-0.913,1.143c-0.189,0.502-0.283,1.225-0.283,2.168v5.381H139.665z"/>
	<path d="M163.425,29.643l1.816,0.225c-0.287,1.062-0.817,1.885-1.592,2.471s-1.764,0.879-2.969,0.879
		c-1.517,0-2.72-0.467-3.608-1.4c-0.889-0.935-1.333-2.245-1.333-3.932c0-1.744,0.449-3.099,1.348-4.063
		c0.898-0.963,2.064-1.445,3.496-1.445c1.387,0,2.52,0.473,3.398,1.416c0.879,0.944,1.318,2.272,1.318,3.984
		c0,0.104-0.003,0.261-0.01,0.469h-7.734c0.065,1.14,0.387,2.012,0.967,2.617s1.302,0.908,2.168,0.908
		c0.645,0,1.195-0.169,1.65-0.508C162.796,30.926,163.158,30.385,163.425,29.643z M157.653,26.801h5.791
		c-0.078-0.872-0.299-1.526-0.664-1.963c-0.56-0.677-1.286-1.016-2.178-1.016c-0.807,0-1.486,0.271-2.036,0.811
		C158.016,25.174,157.712,25.896,157.653,26.801z"/>
	<path d="M171.286,31.41l0.254,1.553c-0.495,0.104-0.938,0.156-1.328,0.156c-0.638,0-1.133-0.101-1.484-0.303
		c-0.352-0.201-0.599-0.467-0.742-0.795c-0.143-0.329-0.215-1.021-0.215-2.076v-5.967h-1.289v-1.367h1.289v-2.568l1.748-1.055v3.623
		h1.768v1.367h-1.768v6.064c0,0.502,0.031,0.824,0.093,0.967c0.062,0.144,0.163,0.258,0.303,0.342
		c0.14,0.085,0.34,0.127,0.601,0.127C170.71,31.479,170.967,31.456,171.286,31.41z"/>
	<path d="M172.985,32.982V22.611h1.582v1.572c0.404-0.735,0.776-1.221,1.118-1.455s0.718-0.352,1.128-0.352
		c0.592,0,1.195,0.189,1.807,0.566l-0.605,1.631c-0.43-0.254-0.859-0.381-1.289-0.381c-0.384,0-0.729,0.116-1.035,0.348
		c-0.306,0.23-0.524,0.551-0.654,0.961c-0.195,0.625-0.293,1.309-0.293,2.051v5.43H172.985z"/>
	<path d="M179.587,36.977l-0.195-1.65c0.384,0.104,0.719,0.156,1.006,0.156c0.391,0,0.703-0.064,0.938-0.195
		c0.234-0.13,0.426-0.313,0.576-0.547c0.111-0.176,0.29-0.611,0.537-1.309c0.033-0.098,0.084-0.24,0.156-0.43l-3.936-10.391h1.895
		l2.158,6.006c0.28,0.762,0.531,1.563,0.752,2.402c0.202-0.807,0.443-1.595,0.723-2.363l2.217-6.045h1.758l-3.945,10.547
		c-0.423,1.14-0.752,1.924-0.986,2.354c-0.313,0.58-0.67,1.005-1.074,1.275c-0.404,0.27-0.885,0.404-1.445,0.404
		C180.381,37.191,180.003,37.12,179.587,36.977z"/>
</g>
<g>
	<g>
		<circle fill="#FFFFFF" stroke="#000000" stroke-miterlimit="10" cx="48.14" cy="72.125" r="25.765"/>
		<line fill="none" stroke="#000000" stroke-miterlimit="10" x1="48.14" y1="58.825" x2="48.14" y2="84.592"/>
		<line fill="none" stroke="#000000" stroke-miterlimit="10" x1="35.258" y1="71.708" x2="61.023" y2="71.708"/>
		<line fill="none" stroke="#000000" stroke-miterlimit="10" x1="72.116" y1="84.592" x2="289.165" y2="84.455"/>
		<g>
			<path d="M94.416,77.855V63.539h5.4c0.951,0,1.676,0.046,2.178,0.137c0.703,0.117,1.292,0.341,1.768,0.67
				c0.475,0.328,0.858,0.789,1.147,1.381c0.29,0.593,0.435,1.244,0.435,1.953c0,1.218-0.387,2.248-1.162,3.092
				c-0.775,0.843-2.174,1.264-4.199,1.264H96.31v5.82H94.416z M96.31,70.346h3.701c1.224,0,2.093-0.228,2.607-0.684
				c0.514-0.455,0.771-1.097,0.771-1.924c0-0.599-0.151-1.111-0.454-1.537c-0.303-0.427-0.702-0.709-1.196-0.846
				c-0.319-0.084-0.908-0.127-1.768-0.127H96.31V70.346z"/>
			<path d="M106.876,72.67c0-1.92,0.534-3.343,1.602-4.268c0.892-0.768,1.979-1.152,3.262-1.152c1.426,0,2.591,0.468,3.496,1.402
				c0.905,0.934,1.357,2.225,1.357,3.871c0,1.335-0.2,2.385-0.601,3.15c-0.4,0.765-0.983,1.358-1.748,1.781
				c-0.765,0.424-1.6,0.635-2.505,0.635c-1.452,0-2.625-0.465-3.521-1.396C107.324,75.763,106.876,74.422,106.876,72.67z
				 M108.683,72.67c0,1.328,0.29,2.323,0.869,2.984c0.58,0.66,1.309,0.99,2.188,0.99c0.873,0,1.598-0.332,2.178-0.996
				s0.869-1.676,0.869-3.037c0-1.282-0.292-2.254-0.874-2.914c-0.583-0.661-1.307-0.992-2.173-0.992
				c-0.879,0-1.608,0.329-2.188,0.986C108.973,70.35,108.683,71.342,108.683,72.67z"/>
			<path d="M118.664,65.561v-2.021h1.758v2.021H118.664z M118.664,77.855V67.484h1.758v10.371H118.664z"/>
			<path d="M123.097,77.855V67.484h1.582v1.475c0.762-1.139,1.862-1.709,3.301-1.709c0.625,0,1.2,0.113,1.724,0.338
				s0.917,0.519,1.177,0.883c0.26,0.365,0.443,0.798,0.547,1.299c0.065,0.326,0.098,0.896,0.098,1.709v6.377h-1.758v-6.309
				c0-0.716-0.068-1.251-0.205-1.605c-0.137-0.355-0.379-0.639-0.728-0.85c-0.348-0.212-0.757-0.318-1.226-0.318
				c-0.749,0-1.395,0.238-1.938,0.713c-0.543,0.476-0.815,1.377-0.815,2.705v5.664H123.097z"/>
			<path d="M138.058,76.283l0.254,1.553c-0.495,0.104-0.938,0.156-1.328,0.156c-0.638,0-1.133-0.101-1.484-0.303
				c-0.352-0.201-0.599-0.467-0.742-0.795c-0.143-0.329-0.215-1.021-0.215-2.076v-5.967h-1.289v-1.367h1.289v-2.568l1.748-1.055
				v3.623h1.768v1.367h-1.768v6.064c0,0.502,0.031,0.824,0.093,0.967c0.062,0.144,0.163,0.258,0.303,0.342
				c0.14,0.085,0.34,0.127,0.601,0.127C137.482,76.352,137.739,76.329,138.058,76.283z"/>
		</g>
	</g>
	<g>
		<circle fill="#FFFFFF" stroke="#000000" stroke-miterlimit="10" cx="48.141" cy="136.777" r="25.766"/>
		<line fill="none" stroke="#000000" stroke-miterlimit="10" x1="48.14" y1="123.479" x2="48.14" y2="149.244"/>
		<line fill="none" stroke="#000000" stroke-miterlimit="10" x1="35.258" y1="136.361" x2="61.023" y2="136.361"/>
		<line fill="none" stroke="#000000" stroke-miterlimit="10" x1="72.116" y1="149.244" x2="289.165" y2="149.107"/>
		<g>
			<path d="M94.338,142.509v-14.316h1.895v12.627h7.051v1.689H94.338z"/>
			<path d="M105.324,130.214v-2.021h1.758v2.021H105.324z M105.324,142.509v-10.371h1.758v10.371H105.324z"/>
			<path d="M109.758,142.509v-10.371h1.582v1.475c0.762-1.14,1.862-1.709,3.301-1.709c0.625,0,1.2,0.112,1.724,0.337
				s0.917,0.52,1.177,0.884s0.443,0.798,0.547,1.299c0.065,0.325,0.098,0.896,0.098,1.709v6.377h-1.758V136.2
				c0-0.716-0.068-1.251-0.205-1.606s-0.379-0.639-0.728-0.85s-0.757-0.317-1.226-0.317c-0.749,0-1.395,0.237-1.938,0.713
				s-0.815,1.377-0.815,2.705v5.664H109.758z"/>
			<path d="M127.98,139.169l1.816,0.225c-0.287,1.062-0.817,1.885-1.592,2.471s-1.764,0.879-2.969,0.879
				c-1.517,0-2.72-0.468-3.608-1.401s-1.333-2.244-1.333-3.931c0-1.745,0.449-3.099,1.348-4.063s2.064-1.445,3.496-1.445
				c1.387,0,2.52,0.472,3.398,1.416s1.318,2.272,1.318,3.984c0,0.104-0.003,0.261-0.01,0.469h-7.734
				c0.065,1.14,0.387,2.012,0.967,2.617s1.302,0.908,2.168,0.908c0.645,0,1.195-0.169,1.65-0.508S127.713,139.911,127.98,139.169z
				 M122.209,136.327H128c-0.078-0.872-0.299-1.526-0.664-1.963c-0.56-0.677-1.286-1.016-2.178-1.016
				c-0.807,0-1.486,0.271-2.036,0.811S122.268,135.422,122.209,136.327z"/>
		</g>
	</g>
	<g>
		<circle fill="#FFFFFF" stroke="#000000" stroke-miterlimit="10" cx="48.141" cy="199.445" r="25.766"/>
		<line fill="none" stroke="#000000" stroke-miterlimit="10" x1="48.14" y1="186.146" x2="48.14" y2="211.912"/>
		<line fill="none" stroke="#000000" stroke-miterlimit="10" x1="35.258" y1="199.028" x2="61.023" y2="199.028"/>
		<line fill="none" stroke="#000000" stroke-miterlimit="10" x1="72.116" y1="211.912" x2="289.165" y2="211.774"/>
		<g>
			<path d="M94.416,205.176v-14.316h5.4c0.951,0,1.676,0.046,2.178,0.137c0.703,0.117,1.292,0.341,1.768,0.67
				c0.475,0.328,0.858,0.789,1.147,1.381c0.29,0.593,0.435,1.244,0.435,1.953c0,1.218-0.387,2.248-1.162,3.092
				c-0.775,0.843-2.174,1.264-4.199,1.264h-3.672v5.82H94.416z M96.311,197.666h3.701c1.224,0,2.093-0.228,2.607-0.684
				c0.514-0.455,0.771-1.097,0.771-1.924c0-0.599-0.151-1.111-0.454-1.537c-0.303-0.427-0.702-0.709-1.196-0.846
				c-0.319-0.084-0.908-0.127-1.768-0.127h-3.662V197.666z"/>
			<path d="M106.877,199.99c0-1.92,0.534-3.343,1.602-4.268c0.892-0.768,1.979-1.152,3.262-1.152c1.426,0,2.591,0.468,3.496,1.402
				c0.905,0.934,1.357,2.225,1.357,3.871c0,1.335-0.2,2.385-0.601,3.15c-0.4,0.765-0.983,1.358-1.748,1.781
				c-0.765,0.424-1.6,0.635-2.505,0.635c-1.452,0-2.625-0.465-3.521-1.396C107.325,203.083,106.877,201.742,106.877,199.99z
				 M108.684,199.99c0,1.328,0.29,2.323,0.869,2.984c0.58,0.66,1.309,0.99,2.188,0.99c0.873,0,1.598-0.332,2.178-0.996
				s0.869-1.676,0.869-3.037c0-1.282-0.292-2.254-0.874-2.914c-0.583-0.661-1.307-0.992-2.173-0.992
				c-0.879,0-1.608,0.329-2.188,0.986C108.973,197.67,108.684,198.662,108.684,199.99z"/>
			<path d="M118.615,205.176v-14.316h1.758v14.316H118.615z"/>
			<path d="M123.02,209.17l-0.195-1.65c0.384,0.104,0.719,0.156,1.006,0.156c0.391,0,0.703-0.064,0.938-0.195
				c0.234-0.13,0.426-0.313,0.576-0.547c0.111-0.176,0.29-0.611,0.537-1.309c0.033-0.098,0.084-0.24,0.156-0.43l-3.936-10.391h1.895
				l2.158,6.006c0.28,0.762,0.531,1.563,0.752,2.402c0.202-0.807,0.443-1.595,0.723-2.363l2.217-6.045h1.758l-3.945,10.547
				c-0.423,1.14-0.752,1.924-0.986,2.354c-0.313,0.58-0.67,1.005-1.074,1.275c-0.404,0.27-0.885,0.404-1.445,0.404
				C123.814,209.385,123.436,209.313,123.02,209.17z"/>
			<path d="M132.775,206.035l1.709,0.254c0.072,0.527,0.27,0.912,0.596,1.152c0.436,0.326,1.032,0.488,1.787,0.488
				c0.814,0,1.442-0.162,1.885-0.488c0.443-0.325,0.742-0.781,0.898-1.367c0.091-0.357,0.133-1.109,0.127-2.256
				c-0.768,0.905-1.725,1.357-2.871,1.357c-1.426,0-2.529-0.514-3.311-1.543c-0.781-1.028-1.172-2.262-1.172-3.701
				c0-0.989,0.179-1.902,0.537-2.738c0.358-0.837,0.877-1.483,1.558-1.939c0.68-0.455,1.479-0.684,2.397-0.684
				c1.224,0,2.233,0.495,3.027,1.484v-1.25h1.621v8.965c0,1.615-0.165,2.76-0.493,3.434s-0.85,1.205-1.563,1.596
				s-1.59,0.586-2.632,0.586c-1.237,0-2.236-0.277-2.998-0.834S132.75,207.155,132.775,206.035z M134.23,199.805
				c0,1.361,0.27,2.354,0.811,2.979s1.217,0.938,2.031,0.938c0.807,0,1.484-0.311,2.031-0.932c0.547-0.622,0.82-1.598,0.82-2.926
				c0-1.27-0.282-2.227-0.845-2.871s-1.242-0.967-2.036-0.967c-0.781,0-1.445,0.318-1.992,0.953S134.23,198.555,134.23,199.805z"/>
			<path d="M143.566,199.99c0-1.92,0.534-3.343,1.602-4.268c0.892-0.768,1.979-1.152,3.262-1.152c1.426,0,2.591,0.468,3.496,1.402
				c0.905,0.934,1.357,2.225,1.357,3.871c0,1.335-0.2,2.385-0.601,3.15c-0.4,0.765-0.983,1.358-1.748,1.781
				c-0.765,0.424-1.6,0.635-2.505,0.635c-1.452,0-2.625-0.465-3.521-1.396C144.014,203.083,143.566,201.742,143.566,199.99z
				 M145.373,199.99c0,1.328,0.29,2.323,0.869,2.984c0.58,0.66,1.309,0.99,2.188,0.99c0.873,0,1.598-0.332,2.178-0.996
				s0.869-1.676,0.869-3.037c0-1.282-0.292-2.254-0.874-2.914c-0.583-0.661-1.307-0.992-2.173-0.992
				c-0.879,0-1.608,0.329-2.188,0.986C145.663,197.67,145.373,198.662,145.373,199.99z"/>
			<path d="M155.344,205.176v-10.371h1.582v1.475c0.762-1.139,1.862-1.709,3.301-1.709c0.625,0,1.2,0.113,1.724,0.338
				s0.917,0.519,1.177,0.883c0.26,0.365,0.443,0.798,0.547,1.299c0.065,0.326,0.098,0.896,0.098,1.709v6.377h-1.758v-6.309
				c0-0.716-0.068-1.251-0.205-1.605c-0.137-0.355-0.379-0.639-0.728-0.85c-0.348-0.212-0.757-0.318-1.226-0.318
				c-0.749,0-1.395,0.238-1.938,0.713c-0.543,0.476-0.815,1.377-0.815,2.705v5.664H155.344z"/>
		</g>
	</g>
</g>
<g>
	<path d="M315.901,31.293v1.689h-9.463c-0.013-0.423,0.055-0.83,0.205-1.221c0.241-0.645,0.626-1.279,1.157-1.904
		s1.297-1.348,2.3-2.168c1.556-1.275,2.607-2.286,3.154-3.031c0.547-0.746,0.82-1.451,0.82-2.115c0-0.696-0.249-1.283-0.747-1.762
		s-1.147-0.719-1.948-0.719c-0.846,0-1.523,0.254-2.031,0.762s-0.765,1.211-0.771,2.109l-1.807-0.186
		c0.124-1.348,0.589-2.374,1.396-3.08c0.807-0.707,1.891-1.061,3.252-1.061c1.374,0,2.461,0.381,3.262,1.143
		s1.201,1.706,1.201,2.832c0,0.573-0.117,1.137-0.352,1.689c-0.234,0.554-0.624,1.137-1.167,1.748
		c-0.543,0.612-1.447,1.452-2.71,2.52c-1.055,0.886-1.732,1.486-2.031,1.803c-0.299,0.315-0.547,0.633-0.742,0.951H315.901z"/>
	<path d="M318.772,32.982V30.98h2.002v2.002H318.772z"/>
	<path d="M329.612,32.982V18.666h4.932c1.113,0,1.963,0.068,2.549,0.205c0.82,0.189,1.52,0.531,2.1,1.025
		c0.755,0.639,1.32,1.454,1.694,2.447c0.375,0.992,0.562,2.127,0.562,3.402c0,1.088-0.127,2.051-0.381,2.891
		s-0.58,1.535-0.977,2.086c-0.397,0.55-0.832,0.982-1.304,1.299c-0.472,0.315-1.042,0.555-1.709,0.717
		c-0.667,0.163-1.434,0.244-2.3,0.244H329.612z M331.507,31.293h3.057c0.944,0,1.685-0.088,2.222-0.264s0.965-0.423,1.284-0.742
		c0.449-0.449,0.799-1.053,1.05-1.811c0.25-0.759,0.376-1.679,0.376-2.76c0-1.497-0.246-2.647-0.737-3.451
		c-0.492-0.805-1.089-1.344-1.792-1.617c-0.508-0.195-1.325-0.293-2.451-0.293h-3.008V31.293z"/>
	<path d="M343.841,20.688v-2.021h1.758v2.021H343.841z M343.841,32.982V22.611h1.758v10.371H343.841z"/>
	<path d="M347.952,33.842l1.709,0.254c0.072,0.527,0.27,0.912,0.596,1.152c0.436,0.326,1.032,0.488,1.787,0.488
		c0.814,0,1.442-0.162,1.885-0.488c0.443-0.325,0.742-0.781,0.898-1.367c0.091-0.357,0.133-1.109,0.127-2.256
		c-0.768,0.905-1.725,1.357-2.871,1.357c-1.426,0-2.529-0.514-3.311-1.543c-0.781-1.028-1.172-2.262-1.172-3.701
		c0-0.989,0.179-1.902,0.537-2.738c0.358-0.837,0.877-1.483,1.558-1.939c0.68-0.455,1.479-0.684,2.397-0.684
		c1.224,0,2.233,0.495,3.027,1.484v-1.25h1.621v8.965c0,1.615-0.165,2.76-0.493,3.434s-0.85,1.205-1.563,1.596
		s-1.59,0.586-2.632,0.586c-1.237,0-2.236-0.277-2.998-0.834S347.926,34.962,347.952,33.842z M349.407,27.611
		c0,1.361,0.27,2.354,0.811,2.979s1.217,0.938,2.031,0.938c0.807,0,1.484-0.311,2.031-0.932c0.547-0.622,0.82-1.598,0.82-2.926
		c0-1.27-0.282-2.227-0.845-2.871s-1.242-0.967-2.036-0.967c-0.781,0-1.445,0.318-1.992,0.953S349.407,26.361,349.407,27.611z"/>
	<path d="M359.407,20.688v-2.021h1.758v2.021H359.407z M359.407,32.982V22.611h1.758v10.371H359.407z"/>
	<path d="M367.679,31.41l0.254,1.553c-0.495,0.104-0.938,0.156-1.328,0.156c-0.638,0-1.133-0.101-1.484-0.303
		c-0.352-0.201-0.599-0.467-0.742-0.795c-0.143-0.329-0.215-1.021-0.215-2.076v-5.967h-1.289v-1.367h1.289v-2.568l1.748-1.055v3.623
		h1.768v1.367h-1.768v6.064c0,0.502,0.031,0.824,0.093,0.967c0.062,0.144,0.163,0.258,0.303,0.342
		c0.14,0.085,0.34,0.127,0.601,0.127C367.103,31.479,367.36,31.456,367.679,31.41z"/>
	<path d="M369.407,20.688v-2.021h1.758v2.021H369.407z M369.407,32.982V22.611h1.758v10.371H369.407z"/>
	<path d="M372.913,32.982v-1.426l6.602-7.578c-0.749,0.039-1.41,0.059-1.982,0.059h-4.229v-1.426h8.477v1.162l-5.615,6.582
		l-1.084,1.201c0.788-0.059,1.527-0.088,2.217-0.088h4.795v1.514H372.913z"/>
	<path d="M390.94,29.643l1.816,0.225c-0.287,1.062-0.817,1.885-1.592,2.471s-1.764,0.879-2.969,0.879c-1.517,0-2.72-0.467-3.608-1.4
		c-0.889-0.935-1.333-2.245-1.333-3.932c0-1.744,0.449-3.099,1.348-4.063c0.898-0.963,2.064-1.445,3.496-1.445
		c1.387,0,2.52,0.473,3.398,1.416c0.879,0.944,1.318,2.272,1.318,3.984c0,0.104-0.003,0.261-0.01,0.469h-7.734
		c0.065,1.14,0.387,2.012,0.967,2.617s1.302,0.908,2.168,0.908c0.645,0,1.195-0.169,1.65-0.508
		C390.312,30.926,390.673,30.385,390.94,29.643z M385.169,26.801h5.791c-0.078-0.872-0.299-1.526-0.664-1.963
		c-0.56-0.677-1.286-1.016-2.178-1.016c-0.807,0-1.486,0.271-2.036,0.811C385.532,25.174,385.228,25.896,385.169,26.801z"/>
	<path d="M400.687,32.982V18.666h2.852l3.389,10.137c0.313,0.944,0.541,1.65,0.684,2.119c0.163-0.521,0.417-1.285,0.762-2.295
		l3.428-9.961h2.549v14.316h-1.826V21l-4.16,11.982h-1.709l-4.141-12.188v12.188H400.687z"/>
	<path d="M423.948,31.703c-0.651,0.554-1.278,0.944-1.88,1.172c-0.602,0.229-1.249,0.342-1.938,0.342
		c-1.139,0-2.015-0.277-2.627-0.834s-0.918-1.269-0.918-2.135c0-0.508,0.116-0.971,0.347-1.391s0.534-0.758,0.908-1.012
		s0.796-0.445,1.265-0.576c0.345-0.091,0.866-0.179,1.563-0.264c1.419-0.169,2.464-0.371,3.135-0.605
		c0.006-0.24,0.01-0.394,0.01-0.459c0-0.716-0.166-1.221-0.498-1.514c-0.449-0.396-1.117-0.596-2.002-0.596
		c-0.827,0-1.437,0.146-1.831,0.436c-0.394,0.289-0.685,0.802-0.874,1.537l-1.719-0.234c0.156-0.735,0.414-1.329,0.771-1.781
		c0.358-0.453,0.875-0.801,1.553-1.045s1.461-0.367,2.354-0.367c0.885,0,1.605,0.104,2.158,0.313
		c0.553,0.209,0.96,0.471,1.221,0.787c0.26,0.315,0.443,0.714,0.547,1.195c0.059,0.3,0.088,0.84,0.088,1.621v2.344
		c0,1.635,0.038,2.668,0.112,3.102c0.075,0.433,0.223,0.848,0.444,1.244H424.3C424.118,32.618,424,32.191,423.948,31.703z
		 M423.802,27.777c-0.638,0.261-1.595,0.482-2.871,0.664c-0.723,0.104-1.234,0.222-1.533,0.352
		c-0.299,0.131-0.531,0.321-0.693,0.572c-0.163,0.25-0.244,0.528-0.244,0.834c0,0.469,0.177,0.859,0.532,1.172
		s0.874,0.469,1.558,0.469c0.677,0,1.279-0.147,1.807-0.443c0.527-0.297,0.915-0.702,1.162-1.217
		c0.189-0.396,0.283-0.982,0.283-1.758V27.777z"/>
	<path d="M428.304,36.957V22.611h1.602v1.348c0.377-0.527,0.804-0.922,1.279-1.186s1.051-0.396,1.729-0.396
		c0.885,0,1.667,0.229,2.344,0.684c0.677,0.456,1.188,1.1,1.533,1.93s0.518,1.739,0.518,2.729c0,1.062-0.19,2.018-0.571,2.867
		s-0.934,1.5-1.66,1.953c-0.726,0.452-1.489,0.678-2.29,0.678c-0.586,0-1.112-0.123-1.577-0.371
		c-0.465-0.247-0.848-0.56-1.147-0.938v5.049H428.304z M429.896,27.855c0,1.335,0.27,2.321,0.811,2.959
		c0.541,0.639,1.195,0.957,1.963,0.957c0.781,0,1.45-0.33,2.007-0.99c0.557-0.661,0.835-1.686,0.835-3.072
		c0-1.321-0.272-2.311-0.815-2.969c-0.543-0.657-1.193-0.986-1.948-0.986c-0.749,0-1.411,0.351-1.987,1.051
		C430.184,25.504,429.896,26.521,429.896,27.855z"/>
	<path d="M444.632,26.01c0-2.376,0.638-4.236,1.914-5.58c1.276-1.345,2.923-2.018,4.941-2.018c1.322,0,2.513,0.316,3.574,0.947
		c1.061,0.632,1.87,1.513,2.427,2.643c0.557,1.129,0.835,2.41,0.835,3.842c0,1.452-0.293,2.751-0.879,3.896
		c-0.586,1.146-1.416,2.014-2.49,2.604c-1.074,0.589-2.233,0.883-3.477,0.883c-1.348,0-2.552-0.325-3.613-0.977
		c-1.061-0.65-1.865-1.539-2.412-2.666C444.905,28.458,444.632,27.267,444.632,26.01z M446.585,26.039
		c0,1.726,0.464,3.085,1.392,4.078c0.928,0.992,2.091,1.488,3.491,1.488c1.426,0,2.599-0.501,3.521-1.504
		c0.921-1.002,1.382-2.425,1.382-4.268c0-1.165-0.197-2.182-0.591-3.051s-0.97-1.543-1.729-2.021s-1.61-0.719-2.554-0.719
		c-1.341,0-2.495,0.461-3.462,1.383C447.068,22.347,446.585,23.885,446.585,26.039z"/>
	<path d="M462.161,32.982h-1.631V18.666h1.758v5.107c0.742-0.931,1.689-1.396,2.842-1.396c0.638,0,1.242,0.129,1.812,0.387
		c0.57,0.257,1.039,0.618,1.406,1.084c0.368,0.465,0.656,1.026,0.864,1.684c0.209,0.658,0.313,1.361,0.313,2.109
		c0,1.777-0.439,3.151-1.318,4.121c-0.879,0.971-1.934,1.455-3.164,1.455c-1.224,0-2.184-0.511-2.881-1.533V32.982z M462.142,27.719
		c0,1.244,0.169,2.143,0.508,2.695c0.553,0.905,1.302,1.357,2.246,1.357c0.768,0,1.432-0.333,1.992-1
		c0.56-0.668,0.84-1.662,0.84-2.984c0-1.354-0.269-2.354-0.806-2.998s-1.187-0.967-1.948-0.967c-0.768,0-1.432,0.334-1.992,1.002
		C462.421,25.491,462.142,26.456,462.142,27.719z"/>
	<path d="M469.426,37.006l0.332-1.494c0.352,0.092,0.629,0.137,0.83,0.137c0.358,0,0.625-0.118,0.801-0.355
		c0.176-0.238,0.264-0.832,0.264-1.783V22.611h1.758v10.938c0,1.276-0.166,2.165-0.498,2.666c-0.423,0.651-1.126,0.977-2.109,0.977
		C470.329,37.191,469.87,37.13,469.426,37.006z M471.653,20.707v-2.041h1.758v2.041H471.653z"/>
	<path d="M483.206,29.643l1.816,0.225c-0.286,1.062-0.816,1.885-1.592,2.471c-0.774,0.586-1.764,0.879-2.969,0.879
		c-1.517,0-2.719-0.467-3.607-1.4c-0.889-0.935-1.334-2.245-1.334-3.932c0-1.744,0.449-3.099,1.348-4.063
		c0.898-0.963,2.064-1.445,3.496-1.445c1.387,0,2.52,0.473,3.398,1.416c0.879,0.944,1.318,2.272,1.318,3.984
		c0,0.104-0.003,0.261-0.01,0.469h-7.734c0.065,1.14,0.388,2.012,0.967,2.617c0.58,0.605,1.303,0.908,2.168,0.908
		c0.645,0,1.195-0.169,1.65-0.508C482.578,30.926,482.939,30.385,483.206,29.643z M477.434,26.801h5.791
		c-0.078-0.872-0.299-1.526-0.664-1.963c-0.56-0.677-1.285-1.016-2.178-1.016c-0.807,0-1.485,0.271-2.035,0.811
		C477.797,25.174,477.493,25.896,477.434,26.801z"/>
	<path d="M493.997,29.184l1.729,0.225c-0.188,1.191-0.672,2.125-1.449,2.799c-0.778,0.674-1.734,1.01-2.867,1.01
		c-1.419,0-2.56-0.463-3.422-1.391c-0.863-0.928-1.295-2.258-1.295-3.99c0-1.119,0.186-2.1,0.557-2.939s0.937-1.469,1.695-1.889
		c0.758-0.42,1.583-0.631,2.475-0.631c1.127,0,2.048,0.285,2.764,0.855c0.717,0.569,1.176,1.378,1.377,2.426l-1.709,0.264
		c-0.162-0.696-0.45-1.221-0.863-1.572c-0.414-0.352-0.914-0.527-1.5-0.527c-0.885,0-1.604,0.318-2.158,0.953
		c-0.553,0.635-0.83,1.639-0.83,3.012c0,1.394,0.268,2.406,0.801,3.037c0.534,0.632,1.23,0.947,2.09,0.947
		c0.69,0,1.267-0.211,1.729-0.635C493.581,30.714,493.874,30.063,493.997,29.184z"/>
	<path d="M501.067,31.41l0.254,1.553c-0.494,0.104-0.938,0.156-1.328,0.156c-0.638,0-1.133-0.101-1.484-0.303
		c-0.352-0.201-0.599-0.467-0.742-0.795c-0.143-0.329-0.215-1.021-0.215-2.076v-5.967h-1.289v-1.367h1.289v-2.568l1.748-1.055v3.623
		h1.768v1.367h-1.768v6.064c0,0.502,0.031,0.824,0.094,0.967c0.062,0.144,0.162,0.258,0.303,0.342c0.14,0.085,0.34,0.127,0.6,0.127
		C500.491,31.479,500.749,31.456,501.067,31.41z"/>
	<path d="M502.083,29.887l1.738-0.273c0.098,0.697,0.37,1.23,0.816,1.602c0.445,0.371,1.068,0.557,1.869,0.557
		c0.808,0,1.406-0.164,1.797-0.492c0.391-0.329,0.586-0.715,0.586-1.158c0-0.396-0.172-0.709-0.518-0.938
		c-0.24-0.156-0.84-0.354-1.797-0.596c-1.289-0.325-2.182-0.606-2.68-0.844c-0.498-0.238-0.876-0.566-1.133-0.986
		c-0.258-0.42-0.387-0.885-0.387-1.393c0-0.462,0.106-0.89,0.318-1.283c0.211-0.395,0.499-0.722,0.863-0.982
		c0.273-0.201,0.646-0.372,1.119-0.512c0.472-0.141,0.978-0.211,1.518-0.211c0.814,0,1.529,0.117,2.145,0.352
		s1.068,0.553,1.361,0.953s0.495,0.936,0.605,1.605l-1.719,0.234c-0.078-0.533-0.304-0.95-0.678-1.25
		c-0.375-0.299-0.904-0.449-1.588-0.449c-0.807,0-1.383,0.134-1.729,0.4c-0.345,0.268-0.518,0.58-0.518,0.938
		c0,0.229,0.072,0.434,0.215,0.615c0.144,0.189,0.368,0.346,0.674,0.469c0.176,0.065,0.693,0.215,1.553,0.449
		c1.244,0.332,2.111,0.604,2.604,0.816c0.491,0.211,0.877,0.519,1.156,0.922c0.28,0.404,0.42,0.905,0.42,1.504
		c0,0.586-0.17,1.139-0.512,1.656s-0.836,0.918-1.48,1.201s-1.373,0.424-2.188,0.424c-1.348,0-2.374-0.279-3.08-0.84
		C502.729,31.817,502.278,30.987,502.083,29.887z"/>
</g>
<g>
	<path d="M593.442,29.203l1.758-0.234c0.201,0.996,0.545,1.715,1.03,2.154s1.075,0.658,1.772,0.658c0.826,0,1.525-0.286,2.095-0.859
		c0.569-0.572,0.854-1.282,0.854-2.129c0-0.807-0.264-1.473-0.791-1.996c-0.527-0.524-1.197-0.787-2.012-0.787
		c-0.332,0-0.746,0.065-1.24,0.195l0.195-1.543c0.117,0.014,0.211,0.02,0.283,0.02c0.748,0,1.422-0.195,2.021-0.586
		s0.898-0.992,0.898-1.807c0-0.645-0.219-1.178-0.654-1.602c-0.436-0.423-1-0.635-1.689-0.635c-0.684,0-1.254,0.215-1.709,0.645
		s-0.748,1.074-0.879,1.934l-1.758-0.313c0.215-1.178,0.703-2.091,1.465-2.738c0.762-0.648,1.709-0.973,2.842-0.973
		c0.781,0,1.5,0.168,2.158,0.504c0.658,0.335,1.16,0.792,1.509,1.371c0.349,0.58,0.522,1.195,0.522,1.846
		c0,0.619-0.166,1.182-0.498,1.689s-0.824,0.912-1.475,1.211c0.846,0.195,1.504,0.602,1.973,1.217s0.703,1.385,0.703,2.309
		c0,1.25-0.455,2.311-1.367,3.18s-2.064,1.303-3.457,1.303c-1.256,0-2.3-0.374-3.13-1.123
		C594.033,31.365,593.559,30.395,593.442,29.203z"/>
	<path d="M605.542,32.982V30.98h2.002v2.002H605.542z"/>
	<path d="M619.663,32.982V20.355h-4.717v-1.689h11.348v1.689h-4.736v12.627H619.663z"/>
	<path d="M632.563,31.703c-0.65,0.554-1.277,0.944-1.88,1.172c-0.603,0.229-1.249,0.342-1.938,0.342
		c-1.139,0-2.016-0.277-2.627-0.834s-0.918-1.269-0.918-2.135c0-0.508,0.115-0.971,0.347-1.391s0.534-0.758,0.908-1.012
		s0.796-0.445,1.265-0.576c0.346-0.091,0.865-0.179,1.563-0.264c1.42-0.169,2.465-0.371,3.135-0.605
		c0.006-0.24,0.01-0.394,0.01-0.459c0-0.716-0.166-1.221-0.498-1.514c-0.449-0.396-1.117-0.596-2.002-0.596
		c-0.826,0-1.438,0.146-1.831,0.436c-0.394,0.289-0.685,0.802-0.874,1.537l-1.719-0.234c0.156-0.735,0.414-1.329,0.771-1.781
		c0.357-0.453,0.875-0.801,1.553-1.045s1.461-0.367,2.354-0.367c0.885,0,1.605,0.104,2.158,0.313
		c0.553,0.209,0.961,0.471,1.221,0.787c0.26,0.315,0.443,0.714,0.547,1.195c0.059,0.3,0.088,0.84,0.088,1.621v2.344
		c0,1.635,0.037,2.668,0.112,3.102c0.075,0.433,0.224,0.848,0.444,1.244h-1.836C632.733,32.618,632.616,32.191,632.563,31.703z
		 M632.417,27.777c-0.639,0.261-1.596,0.482-2.871,0.664c-0.723,0.104-1.234,0.222-1.533,0.352
		c-0.299,0.131-0.531,0.321-0.693,0.572c-0.162,0.25-0.244,0.528-0.244,0.834c0,0.469,0.178,0.859,0.532,1.172
		s0.874,0.469,1.558,0.469c0.678,0,1.279-0.147,1.807-0.443c0.527-0.297,0.914-0.702,1.162-1.217
		c0.189-0.396,0.283-0.982,0.283-1.758V27.777z"/>
	<path d="M636.596,33.842l1.709,0.254c0.072,0.527,0.27,0.912,0.596,1.152c0.436,0.326,1.031,0.488,1.787,0.488
		c0.814,0,1.441-0.162,1.885-0.488c0.443-0.325,0.742-0.781,0.898-1.367c0.092-0.357,0.133-1.109,0.127-2.256
		c-0.768,0.905-1.725,1.357-2.871,1.357c-1.426,0-2.529-0.514-3.311-1.543c-0.781-1.028-1.172-2.262-1.172-3.701
		c0-0.989,0.18-1.902,0.537-2.738c0.357-0.837,0.877-1.483,1.558-1.939c0.681-0.455,1.479-0.684,2.397-0.684
		c1.225,0,2.232,0.495,3.027,1.484v-1.25h1.621v8.965c0,1.615-0.164,2.76-0.493,3.434s-0.85,1.205-1.563,1.596
		s-1.591,0.586-2.632,0.586c-1.236,0-2.236-0.277-2.998-0.834S636.571,34.962,636.596,33.842z M638.051,27.611
		c0,1.361,0.27,2.354,0.811,2.979s1.217,0.938,2.031,0.938c0.807,0,1.484-0.311,2.031-0.932c0.547-0.622,0.82-1.598,0.82-2.926
		c0-1.27-0.281-2.227-0.845-2.871s-1.241-0.967-2.036-0.967c-0.781,0-1.445,0.318-1.992,0.953S638.051,26.361,638.051,27.611z"/>
	<path d="M653.247,26.01c0-2.376,0.639-4.236,1.914-5.58c1.275-1.345,2.924-2.018,4.941-2.018c1.322,0,2.514,0.316,3.574,0.947
		c1.061,0.632,1.87,1.513,2.427,2.643c0.557,1.129,0.835,2.41,0.835,3.842c0,1.452-0.293,2.751-0.879,3.896
		c-0.586,1.146-1.416,2.014-2.49,2.604c-1.074,0.589-2.232,0.883-3.477,0.883c-1.348,0-2.553-0.325-3.613-0.977
		c-1.061-0.65-1.865-1.539-2.412-2.666C653.52,28.458,653.247,27.267,653.247,26.01z M655.2,26.039c0,1.726,0.464,3.085,1.392,4.078
		c0.928,0.992,2.091,1.488,3.491,1.488c1.426,0,2.6-0.501,3.521-1.504c0.921-1.002,1.382-2.425,1.382-4.268
		c0-1.165-0.197-2.182-0.591-3.051s-0.97-1.543-1.729-2.021s-1.61-0.719-2.554-0.719c-1.342,0-2.495,0.461-3.462,1.383
		C655.683,22.347,655.2,23.885,655.2,26.039z"/>
	<path d="M670.776,32.982h-1.631V18.666h1.758v5.107c0.742-0.931,1.689-1.396,2.842-1.396c0.639,0,1.242,0.129,1.812,0.387
		c0.569,0.257,1.038,0.618,1.406,1.084c0.368,0.465,0.655,1.026,0.864,1.684c0.209,0.658,0.313,1.361,0.313,2.109
		c0,1.777-0.439,3.151-1.318,4.121c-0.879,0.971-1.934,1.455-3.164,1.455c-1.225,0-2.184-0.511-2.881-1.533V32.982z M670.756,27.719
		c0,1.244,0.17,2.143,0.508,2.695c0.553,0.905,1.303,1.357,2.246,1.357c0.768,0,1.432-0.333,1.992-1
		c0.561-0.668,0.84-1.662,0.84-2.984c0-1.354-0.269-2.354-0.806-2.998s-1.187-0.967-1.948-0.967c-0.768,0-1.432,0.334-1.992,1.002
		C671.036,25.491,670.756,26.456,670.756,27.719z"/>
	<path d="M678.042,37.006l0.332-1.494c0.352,0.092,0.629,0.137,0.83,0.137c0.357,0,0.625-0.118,0.801-0.355
		c0.176-0.238,0.264-0.832,0.264-1.783V22.611h1.758v10.938c0,1.276-0.166,2.165-0.498,2.666c-0.424,0.651-1.127,0.977-2.109,0.977
		C678.944,37.191,678.485,37.13,678.042,37.006z M680.268,20.707v-2.041h1.758v2.041H680.268z"/>
	<path d="M691.821,29.643l1.816,0.225c-0.287,1.062-0.816,1.885-1.592,2.471s-1.764,0.879-2.969,0.879
		c-1.518,0-2.72-0.467-3.608-1.4c-0.889-0.935-1.333-2.245-1.333-3.932c0-1.744,0.449-3.099,1.348-4.063
		c0.898-0.963,2.064-1.445,3.496-1.445c1.387,0,2.52,0.473,3.398,1.416c0.879,0.944,1.318,2.272,1.318,3.984
		c0,0.104-0.004,0.261-0.01,0.469h-7.734c0.064,1.14,0.387,2.012,0.967,2.617s1.303,0.908,2.168,0.908
		c0.645,0,1.195-0.169,1.65-0.508C691.192,30.926,691.553,30.385,691.821,29.643z M686.049,26.801h5.791
		c-0.078-0.872-0.299-1.526-0.664-1.963c-0.561-0.677-1.285-1.016-2.178-1.016c-0.807,0-1.486,0.271-2.036,0.811
		C686.413,25.174,686.108,25.896,686.049,26.801z"/>
	<path d="M702.612,29.184l1.729,0.225c-0.189,1.191-0.672,2.125-1.45,2.799s-1.733,1.01-2.866,1.01c-1.42,0-2.561-0.463-3.423-1.391
		s-1.294-2.258-1.294-3.99c0-1.119,0.186-2.1,0.557-2.939s0.936-1.469,1.694-1.889s1.583-0.631,2.476-0.631
		c1.127,0,2.047,0.285,2.764,0.855c0.717,0.569,1.176,1.378,1.377,2.426l-1.709,0.264c-0.162-0.696-0.451-1.221-0.864-1.572
		s-0.913-0.527-1.499-0.527c-0.885,0-1.605,0.318-2.158,0.953s-0.83,1.639-0.83,3.012c0,1.394,0.268,2.406,0.801,3.037
		c0.533,0.632,1.23,0.947,2.09,0.947c0.689,0,1.266-0.211,1.729-0.635C702.196,30.714,702.489,30.063,702.612,29.184z"/>
	<path d="M709.682,31.41l0.254,1.553c-0.494,0.104-0.938,0.156-1.328,0.156c-0.639,0-1.133-0.101-1.484-0.303
		c-0.352-0.201-0.6-0.467-0.742-0.795c-0.143-0.329-0.215-1.021-0.215-2.076v-5.967h-1.289v-1.367h1.289v-2.568l1.748-1.055v3.623
		h1.768v1.367h-1.768v6.064c0,0.502,0.031,0.824,0.093,0.967c0.062,0.144,0.163,0.258,0.303,0.342
		c0.14,0.085,0.341,0.127,0.601,0.127C709.106,31.479,709.364,31.456,709.682,31.41z"/>
	<path d="M710.698,29.887l1.738-0.273c0.098,0.697,0.369,1.23,0.815,1.602s1.069,0.557,1.87,0.557c0.807,0,1.406-0.164,1.797-0.492
		c0.391-0.329,0.586-0.715,0.586-1.158c0-0.396-0.172-0.709-0.518-0.938c-0.24-0.156-0.84-0.354-1.797-0.596
		c-1.289-0.325-2.183-0.606-2.681-0.844c-0.498-0.238-0.876-0.566-1.133-0.986s-0.386-0.885-0.386-1.393
		c0-0.462,0.105-0.89,0.317-1.283c0.212-0.395,0.499-0.722,0.864-0.982c0.273-0.201,0.646-0.372,1.118-0.512
		c0.472-0.141,0.978-0.211,1.519-0.211c0.814,0,1.528,0.117,2.144,0.352s1.069,0.553,1.362,0.953s0.494,0.936,0.605,1.605
		l-1.719,0.234c-0.078-0.533-0.305-0.95-0.679-1.25c-0.374-0.299-0.903-0.449-1.587-0.449c-0.807,0-1.383,0.134-1.729,0.4
		c-0.346,0.268-0.518,0.58-0.518,0.938c0,0.229,0.072,0.434,0.215,0.615c0.143,0.189,0.367,0.346,0.674,0.469
		c0.176,0.065,0.693,0.215,1.553,0.449c1.244,0.332,2.111,0.604,2.603,0.816c0.491,0.211,0.878,0.519,1.157,0.922
		c0.279,0.404,0.42,0.905,0.42,1.504c0,0.586-0.171,1.139-0.513,1.656s-0.835,0.918-1.479,1.201s-1.373,0.424-2.188,0.424
		c-1.348,0-2.375-0.279-3.081-0.84C711.344,31.817,710.893,30.987,710.698,29.887z"/>
</g>
<g>
	<g>
		<path fill="none" stroke="#000000" stroke-miterlimit="10" d="M343.478,71.349"/>
	</g>
</g>
<g>
	<g>
		<g>
			
				<line fill="none" stroke="#000000" stroke-width="2" stroke-miterlimit="10" x1="634.811" y1="244.775" x2="635.811" y2="244.775"/>
			
				<line fill="none" stroke="#000000" stroke-width="2" stroke-miterlimit="10" stroke-dasharray="1.8201,1.8201" x1="637.631" y1="244.775" x2="654.922" y2="244.775"/>
			
				<line fill="none" stroke="#000000" stroke-width="2" stroke-miterlimit="10" x1="655.833" y1="244.775" x2="656.833" y2="244.775"/>
			<g>
				<polygon points="638.794,248.166 635.402,244.775 638.794,241.385 635.916,241.385 632.525,244.775 635.916,248.166 				"/>
			</g>
		</g>
	</g>
	<g>
		<g>
			
				<line fill="none" stroke="#000000" stroke-width="2" stroke-miterlimit="10" x1="626.956" y1="111.313" x2="626.956" y2="112.313"/>
			
				<line fill="none" stroke="#000000" stroke-width="2" stroke-miterlimit="10" stroke-dasharray="1.9685,1.9685" x1="626.955" y1="114.281" x2="626.929" y2="184.161"/>
			
				<line fill="none" stroke="#000000" stroke-width="2" stroke-miterlimit="10" x1="626.928" y1="185.146" x2="626.928" y2="186.146"/>
			<g>
				<polygon points="623.564,115.295 626.956,111.903 630.345,115.297 630.346,112.418 626.957,109.026 623.565,112.416 				"/>
			</g>
		</g>
	</g>
	<g>
		<g>
			
				<line fill="none" stroke="#000000" stroke-width="2" stroke-miterlimit="10" x1="716.102" y1="113.046" x2="716.102" y2="112.046"/>
			
				<line fill="none" stroke="#000000" stroke-width="2" stroke-miterlimit="10" stroke-dasharray="2.0485,2.0485" x1="716.102" y1="109.998" x2="716.102" y2="74.149"/>
			
				<line fill="none" stroke="#000000" stroke-width="2" stroke-miterlimit="10" x1="716.102" y1="73.125" x2="716.102" y2="72.125"/>
			<g>
				<polygon points="719.493,109.063 716.102,112.455 712.711,109.063 712.711,111.941 716.102,115.332 719.493,111.941 				"/>
			</g>
		</g>
	</g>
	<g>
		<line fill="none" stroke="#000000" stroke-miterlimit="10" x1="607.158" y1="89.891" x2="843.917" y2="252.093"/>
		<polygon fill="none" stroke="#000000" stroke-miterlimit="10" points="857.744,156.282 801.697,205.151 775.359,186.454 
			790.969,172.844 716.102,119.697 756.542,84.441 784.614,104.369 796.123,94.333 837.715,123.858 826.205,133.895 		"/>
		<g>
			<path fill="none" stroke="#000000" stroke-miterlimit="10" d="M621.904,225.293c0-3.136,3.233-5.68,7.22-5.68
				c3.985,0,7.216,2.544,7.216,5.68c0,1.274-0.535,2.449-1.435,3.396l-0.007,0.008l-5.741,16.434l-5.712-16.333
				C622.483,227.831,621.904,226.618,621.904,225.293z"/>
			<ellipse fill="none" stroke="#000000" stroke-miterlimit="10" cx="629.123" cy="224.821" rx="2.887" ry="2.271"/>
		</g>
	</g>
</g>
<g>
	<path d="M647.742,69.114c0.036-0.594,0.072-1.477,0.072-2.251V56.33h1.566v5.474h0.036c0.558-0.972,1.566-1.603,2.971-1.603
		c2.161,0,3.691,1.801,3.673,4.447c0,3.115-1.962,4.664-3.907,4.664c-1.26,0-2.269-0.486-2.916-1.639h-0.055l-0.072,1.44H647.742z
		 M649.38,65.621c0,0.198,0.036,0.396,0.072,0.576c0.306,1.099,1.224,1.854,2.376,1.854c1.657,0,2.647-1.351,2.647-3.349
		c0-1.747-0.9-3.241-2.593-3.241c-1.08,0-2.089,0.738-2.413,1.944c-0.036,0.181-0.09,0.396-0.09,0.648V65.621z"/>
	<path d="M665.348,66.737c0,0.9,0.019,1.692,0.072,2.377h-1.404l-0.09-1.423h-0.036c-0.414,0.703-1.333,1.621-2.881,1.621
		c-1.369,0-3.007-0.757-3.007-3.817v-5.096h1.584v4.825c0,1.657,0.504,2.773,1.944,2.773c1.063,0,1.801-0.738,2.089-1.44
		c0.09-0.234,0.145-0.522,0.145-0.811v-5.348h1.584V66.737z"/>
	<path d="M669.739,57.951c0.018,0.54-0.378,0.972-1.009,0.972c-0.558,0-0.954-0.432-0.954-0.972c0-0.559,0.414-0.99,0.99-0.99
		C669.361,56.961,669.739,57.393,669.739,57.951z M667.974,69.114v-8.715h1.584v8.715H667.974z"/>
	<path d="M672.186,56.33h1.584v12.784h-1.584V56.33z"/>
	<path d="M683.96,56.33v10.533c0,0.774,0.018,1.657,0.072,2.251h-1.423l-0.072-1.513h-0.036c-0.485,0.973-1.548,1.711-2.971,1.711
		c-2.106,0-3.727-1.783-3.727-4.43c-0.019-2.898,1.782-4.682,3.907-4.682c1.332,0,2.232,0.631,2.628,1.333h0.036V56.33H683.96z
		 M682.375,63.946c0-0.197-0.018-0.468-0.071-0.666c-0.234-1.008-1.099-1.836-2.287-1.836c-1.639,0-2.61,1.44-2.61,3.366
		c0,1.765,0.864,3.224,2.574,3.224c1.063,0,2.035-0.702,2.323-1.891c0.054-0.216,0.071-0.433,0.071-0.685V63.946z"/>
	<path d="M688.351,57.951c0.018,0.54-0.378,0.972-1.009,0.972c-0.558,0-0.954-0.432-0.954-0.972c0-0.559,0.414-0.99,0.99-0.99
		C687.973,56.961,688.351,57.393,688.351,57.951z M686.586,69.114v-8.715h1.584v8.715H686.586z"/>
	<path d="M690.798,62.759c0-0.9-0.019-1.639-0.072-2.359h1.404l0.091,1.44h0.035c0.433-0.828,1.44-1.639,2.881-1.639
		c1.207,0,3.079,0.721,3.079,3.71v5.203h-1.584v-5.023c0-1.404-0.522-2.575-2.017-2.575c-1.045,0-1.854,0.738-2.125,1.621
		c-0.072,0.198-0.108,0.468-0.108,0.738v5.239h-1.584V62.759z"/>
	<path d="M708.296,60.399c-0.036,0.631-0.071,1.333-0.071,2.395v5.06c0,1.999-0.396,3.224-1.243,3.979
		c-0.846,0.792-2.07,1.044-3.169,1.044c-1.044,0-2.196-0.252-2.898-0.72l0.396-1.206c0.576,0.359,1.477,0.684,2.557,0.684
		c1.62,0,2.809-0.846,2.809-3.043V67.62h-0.036c-0.486,0.81-1.422,1.458-2.772,1.458c-2.161,0-3.709-1.836-3.709-4.249
		c0-2.953,1.926-4.628,3.925-4.628c1.513,0,2.341,0.793,2.719,1.513h0.036l0.072-1.314H708.296z M706.659,63.839
		c0-0.271-0.019-0.504-0.091-0.721c-0.288-0.918-1.062-1.674-2.214-1.674c-1.513,0-2.593,1.278-2.593,3.295
		c0,1.71,0.864,3.133,2.574,3.133c0.973,0,1.854-0.612,2.196-1.621c0.091-0.27,0.127-0.576,0.127-0.846V63.839z"/>
	<path d="M710.256,63.047v-1.081h9.29v1.081H710.256z M710.256,66.575v-1.08h9.29v1.08H710.256z"/>
	<path d="M726.403,69.114l-0.126-1.099h-0.054c-0.486,0.685-1.423,1.297-2.665,1.297c-1.765,0-2.665-1.242-2.665-2.503
		c0-2.106,1.873-3.259,5.24-3.241v-0.18c0-0.721-0.198-2.017-1.98-2.017c-0.811,0-1.657,0.252-2.27,0.648l-0.359-1.045
		c0.72-0.468,1.764-0.774,2.862-0.774c2.665,0,3.313,1.819,3.313,3.565v3.259c0,0.757,0.036,1.495,0.144,2.089H726.403z
		 M726.168,64.667c-1.729-0.036-3.69,0.271-3.69,1.963c0,1.026,0.684,1.512,1.494,1.512c1.135,0,1.854-0.72,2.106-1.458
		c0.055-0.162,0.09-0.342,0.09-0.504V64.667z"/>
	<path d="M730.253,63.244c0-1.116-0.036-2.017-0.072-2.845h1.423l0.072,1.495h0.035c0.648-1.063,1.675-1.693,3.098-1.693
		c2.106,0,3.69,1.783,3.69,4.43c0,3.133-1.908,4.682-3.961,4.682c-1.152,0-2.16-0.504-2.683-1.368h-0.036v4.735h-1.566V63.244z
		 M731.82,65.567c0,0.233,0.036,0.45,0.072,0.648c0.288,1.098,1.242,1.854,2.376,1.854c1.675,0,2.647-1.369,2.647-3.367
		c0-1.747-0.919-3.241-2.593-3.241c-1.08,0-2.089,0.774-2.395,1.963c-0.055,0.198-0.108,0.432-0.108,0.647V65.567z"/>
	<path d="M745.321,69.114l-0.126-1.099h-0.054c-0.486,0.685-1.423,1.297-2.665,1.297c-1.765,0-2.665-1.242-2.665-2.503
		c0-2.106,1.873-3.259,5.24-3.241v-0.18c0-0.721-0.198-2.017-1.98-2.017c-0.811,0-1.657,0.252-2.27,0.648l-0.359-1.045
		c0.72-0.468,1.764-0.774,2.862-0.774c2.665,0,3.313,1.819,3.313,3.565v3.259c0,0.757,0.036,1.495,0.144,2.089H745.321z
		 M745.086,64.667c-1.729-0.036-3.69,0.271-3.69,1.963c0,1.026,0.684,1.512,1.494,1.512c1.135,0,1.854-0.72,2.106-1.458
		c0.055-0.162,0.09-0.342,0.09-0.504V64.667z"/>
	<path d="M749.171,63.118c0-1.026-0.019-1.908-0.072-2.719h1.387l0.054,1.711h0.072c0.396-1.171,1.351-1.909,2.413-1.909
		c0.18,0,0.306,0.019,0.45,0.055v1.494c-0.162-0.036-0.324-0.054-0.541-0.054c-1.116,0-1.908,0.846-2.124,2.034
		c-0.036,0.216-0.072,0.469-0.072,0.738v4.646h-1.566V63.118z"/>
	<path d="M757.397,57.896v2.503h2.269v1.207h-2.269v4.699c0,1.08,0.307,1.692,1.188,1.692c0.414,0,0.721-0.054,0.919-0.108
		l0.071,1.188c-0.306,0.126-0.792,0.216-1.404,0.216c-0.738,0-1.332-0.233-1.71-0.666c-0.45-0.468-0.612-1.242-0.612-2.269v-4.753
		h-1.351v-1.207h1.351v-2.089L757.397,57.896z"/>
	<path d="M761.447,62.759c0-0.9-0.019-1.639-0.072-2.359h1.387l0.072,1.404h0.054c0.486-0.828,1.296-1.603,2.736-1.603
		c1.188,0,2.089,0.721,2.467,1.747h0.036c0.271-0.486,0.612-0.864,0.973-1.135c0.522-0.396,1.099-0.612,1.927-0.612
		c1.152,0,2.862,0.757,2.862,3.781v5.132h-1.548v-4.934c0-1.675-0.612-2.683-1.891-2.683c-0.9,0-1.603,0.666-1.873,1.44
		c-0.072,0.216-0.126,0.504-0.126,0.792v5.384h-1.548v-5.222c0-1.387-0.612-2.395-1.819-2.395c-0.99,0-1.71,0.792-1.962,1.584
		c-0.091,0.234-0.126,0.505-0.126,0.774v5.258h-1.549V62.759z"/>
	<path d="M777.34,65.045c0.036,2.143,1.404,3.025,2.989,3.025c1.135,0,1.818-0.198,2.413-0.45l0.27,1.134
		c-0.558,0.252-1.513,0.54-2.898,0.54c-2.683,0-4.285-1.765-4.285-4.393c0-2.629,1.548-4.7,4.087-4.7
		c2.845,0,3.601,2.503,3.601,4.105c0,0.324-0.035,0.576-0.054,0.738H777.34z M781.986,63.911c0.019-1.009-0.414-2.575-2.196-2.575
		c-1.603,0-2.305,1.477-2.431,2.575H781.986z"/>
	<path d="M785.476,62.759c0-0.9-0.019-1.639-0.072-2.359h1.404l0.091,1.44h0.035c0.433-0.828,1.44-1.639,2.881-1.639
		c1.207,0,3.079,0.721,3.079,3.71v5.203h-1.584v-5.023c0-1.404-0.522-2.575-2.017-2.575c-1.045,0-1.854,0.738-2.125,1.621
		c-0.072,0.198-0.108,0.468-0.108,0.738v5.239h-1.584V62.759z"/>
	<path d="M797.302,57.896v2.503h2.269v1.207h-2.269v4.699c0,1.08,0.307,1.692,1.188,1.692c0.414,0,0.721-0.054,0.918-0.108
		l0.072,1.188c-0.306,0.126-0.792,0.216-1.404,0.216c-0.738,0-1.332-0.233-1.71-0.666c-0.45-0.468-0.612-1.242-0.612-2.269v-4.753
		h-1.351v-1.207h1.351v-2.089L797.302,57.896z"/>
	<path d="M801.136,67.494c0.468,0.306,1.296,0.63,2.088,0.63c1.152,0,1.693-0.576,1.693-1.297c0-0.756-0.45-1.17-1.621-1.603
		c-1.566-0.558-2.305-1.422-2.305-2.466c0-1.405,1.135-2.558,3.007-2.558c0.883,0,1.656,0.253,2.143,0.541l-0.396,1.152
		c-0.343-0.217-0.973-0.505-1.783-0.505c-0.936,0-1.458,0.54-1.458,1.188c0,0.721,0.522,1.045,1.656,1.477
		c1.513,0.576,2.287,1.332,2.287,2.629c0,1.53-1.188,2.61-3.259,2.61c-0.955,0-1.837-0.233-2.449-0.594L801.136,67.494z"/>
</g>
<g>
	<path d="M595.814,187.664h1.584v5.438h0.036c0.252-0.449,0.648-0.846,1.135-1.116c0.468-0.27,1.026-0.45,1.62-0.45
		c1.171,0,3.043,0.721,3.043,3.728v5.186h-1.584v-5.006c0-1.404-0.522-2.593-2.017-2.593c-1.026,0-1.837,0.721-2.125,1.585
		c-0.09,0.216-0.108,0.45-0.108,0.756v5.258h-1.584V187.664z"/>
	<path d="M607.569,189.285c0.018,0.54-0.378,0.972-1.009,0.972c-0.558,0-0.954-0.432-0.954-0.972c0-0.559,0.414-0.99,0.99-0.99
		C607.191,188.295,607.569,188.727,607.569,189.285z M605.804,200.448v-8.715h1.584v8.715H605.804z"/>
	<path d="M617.524,191.733c-0.035,0.631-0.071,1.333-0.071,2.395v5.06c0,1.999-0.396,3.224-1.243,3.979
		c-0.846,0.792-2.07,1.044-3.169,1.044c-1.044,0-2.196-0.252-2.898-0.72l0.396-1.206c0.576,0.359,1.476,0.684,2.557,0.684
		c1.62,0,2.809-0.846,2.809-3.043v-0.972h-0.036c-0.486,0.81-1.422,1.458-2.772,1.458c-2.161,0-3.709-1.836-3.709-4.249
		c0-2.953,1.926-4.628,3.925-4.628c1.513,0,2.341,0.793,2.719,1.513h0.036l0.072-1.314H617.524z M615.886,195.173
		c0-0.271-0.019-0.504-0.091-0.721c-0.288-0.918-1.062-1.674-2.214-1.674c-1.513,0-2.593,1.278-2.593,3.295
		c0,1.71,0.864,3.133,2.574,3.133c0.973,0,1.854-0.612,2.197-1.621c0.09-0.27,0.126-0.576,0.126-0.846V195.173z"/>
	<path d="M620.078,187.664h1.584v5.438h0.036c0.252-0.449,0.648-0.846,1.135-1.116c0.468-0.27,1.026-0.45,1.62-0.45
		c1.171,0,3.043,0.721,3.043,3.728v5.186h-1.584v-5.006c0-1.404-0.522-2.593-2.017-2.593c-1.026,0-1.837,0.721-2.125,1.585
		c-0.09,0.216-0.108,0.45-0.108,0.756v5.258h-1.584V187.664z"/>
	<path d="M630.464,191.733l1.152,4.43c0.252,0.972,0.486,1.872,0.648,2.772h0.054c0.198-0.882,0.486-1.818,0.774-2.755l1.423-4.447
		h1.332l1.351,4.357c0.324,1.044,0.576,1.963,0.774,2.845h0.054c0.144-0.882,0.378-1.801,0.666-2.826l1.242-4.376h1.566
		l-2.809,8.715h-1.44l-1.332-4.159c-0.307-0.973-0.559-1.837-0.774-2.863h-0.036c-0.216,1.045-0.486,1.945-0.792,2.881l-1.404,4.142
		h-1.44l-2.629-8.715H630.464z"/>
	<path d="M647.835,200.448l-0.126-1.099h-0.054c-0.486,0.685-1.423,1.297-2.665,1.297c-1.765,0-2.665-1.242-2.665-2.503
		c0-2.106,1.873-3.259,5.24-3.241v-0.18c0-0.721-0.198-2.017-1.981-2.017c-0.81,0-1.656,0.252-2.269,0.648l-0.359-1.045
		c0.72-0.468,1.765-0.774,2.862-0.774c2.665,0,3.313,1.819,3.313,3.565v3.259c0,0.757,0.036,1.495,0.144,2.089H647.835z
		 M647.602,196.001c-1.729-0.036-3.691,0.271-3.691,1.963c0,1.026,0.684,1.512,1.494,1.512c1.135,0,1.854-0.72,2.106-1.458
		c0.055-0.162,0.091-0.342,0.091-0.504V196.001z"/>
	<path d="M652.119,191.733l1.908,5.149c0.198,0.576,0.414,1.261,0.559,1.783h0.036c0.162-0.522,0.342-1.188,0.558-1.818l1.729-5.114
		h1.675l-2.377,6.212c-1.134,2.989-1.908,4.52-2.988,5.456c-0.774,0.684-1.549,0.954-1.945,1.026l-0.396-1.333
		c0.396-0.126,0.918-0.378,1.386-0.774c0.433-0.342,0.973-0.954,1.333-1.764c0.072-0.162,0.126-0.288,0.126-0.379
		c0-0.09-0.036-0.216-0.108-0.414l-3.223-8.03H652.119z"/>
	<path d="M659.426,194.381V193.3h9.29v1.081H659.426z M659.426,197.909v-1.08h9.29v1.08H659.426z"/>
	<path d="M670.532,198.828c0.468,0.306,1.296,0.63,2.088,0.63c1.152,0,1.693-0.576,1.693-1.297c0-0.756-0.45-1.17-1.621-1.603
		c-1.566-0.558-2.305-1.422-2.305-2.466c0-1.405,1.135-2.558,3.007-2.558c0.883,0,1.657,0.253,2.143,0.541l-0.396,1.152
		c-0.343-0.217-0.973-0.505-1.783-0.505c-0.936,0-1.458,0.54-1.458,1.188c0,0.721,0.522,1.045,1.656,1.477
		c1.513,0.576,2.287,1.332,2.287,2.629c0,1.53-1.188,2.61-3.259,2.61c-0.955,0-1.837-0.233-2.449-0.594L670.532,198.828z"/>
	<path d="M678.757,196.379c0.036,2.143,1.405,3.025,2.989,3.025c1.135,0,1.818-0.198,2.413-0.45l0.27,1.134
		c-0.558,0.252-1.513,0.54-2.898,0.54c-2.683,0-4.285-1.765-4.285-4.393c0-2.629,1.548-4.7,4.087-4.7
		c2.845,0,3.601,2.503,3.601,4.105c0,0.324-0.035,0.576-0.054,0.738H678.757z M683.403,195.245c0.019-1.009-0.414-2.575-2.196-2.575
		c-1.603,0-2.305,1.477-2.431,2.575H683.403z"/>
	<path d="M693.105,200.124c-0.414,0.216-1.333,0.504-2.503,0.504c-2.629,0-4.339-1.782-4.339-4.447c0-2.683,1.836-4.627,4.681-4.627
		c0.937,0,1.765,0.234,2.197,0.45l-0.36,1.225c-0.378-0.217-0.973-0.414-1.837-0.414c-1.998,0-3.078,1.476-3.078,3.295
		c0,2.017,1.296,3.259,3.024,3.259c0.9,0,1.494-0.234,1.944-0.433L693.105,200.124z"/>
	<path d="M702.736,196.019c0,3.224-2.233,4.628-4.34,4.628c-2.358,0-4.177-1.729-4.177-4.483c0-2.917,1.908-4.628,4.321-4.628
		C701.042,191.535,702.736,193.354,702.736,196.019z M695.822,196.109c0,1.908,1.098,3.349,2.646,3.349
		c1.513,0,2.646-1.423,2.646-3.385c0-1.477-0.738-3.35-2.61-3.35C696.631,192.724,695.822,194.452,695.822,196.109z"/>
	<path d="M704.731,194.093c0-0.9-0.018-1.639-0.072-2.359h1.404l0.09,1.44h0.036c0.433-0.828,1.44-1.639,2.881-1.639
		c1.207,0,3.079,0.721,3.079,3.71v5.203h-1.584v-5.023c0-1.404-0.522-2.575-2.017-2.575c-1.045,0-1.854,0.738-2.125,1.621
		c-0.072,0.198-0.108,0.468-0.108,0.738v5.239h-1.584V194.093z"/>
	<path d="M722.248,187.664v10.533c0,0.774,0.018,1.657,0.072,2.251h-1.423l-0.072-1.513h-0.036
		c-0.485,0.973-1.548,1.711-2.971,1.711c-2.106,0-3.727-1.783-3.727-4.43c-0.019-2.898,1.782-4.682,3.907-4.682
		c1.332,0,2.232,0.631,2.628,1.333h0.036v-5.204H722.248z M720.663,195.28c0-0.197-0.018-0.468-0.071-0.666
		c-0.234-1.008-1.099-1.836-2.287-1.836c-1.639,0-2.61,1.44-2.61,3.366c0,1.765,0.864,3.224,2.574,3.224
		c1.063,0,2.035-0.702,2.323-1.891c0.054-0.216,0.071-0.433,0.071-0.685V195.28z"/>
	<path d="M729.699,200.448l-0.126-1.099h-0.054c-0.486,0.685-1.423,1.297-2.665,1.297c-1.765,0-2.665-1.242-2.665-2.503
		c0-2.106,1.873-3.259,5.24-3.241v-0.18c0-0.721-0.198-2.017-1.981-2.017c-0.81,0-1.656,0.252-2.269,0.648l-0.359-1.045
		c0.72-0.468,1.765-0.774,2.862-0.774c2.665,0,3.313,1.819,3.313,3.565v3.259c0,0.757,0.036,1.495,0.144,2.089H729.699z
		 M729.465,196.001c-1.729-0.036-3.691,0.271-3.691,1.963c0,1.026,0.684,1.512,1.494,1.512c1.135,0,1.854-0.72,2.106-1.458
		c0.055-0.162,0.091-0.342,0.091-0.504V196.001z"/>
	<path d="M733.549,194.452c0-1.026-0.018-1.908-0.072-2.719h1.387l0.054,1.711h0.072c0.396-1.171,1.351-1.909,2.413-1.909
		c0.18,0,0.306,0.019,0.449,0.055v1.494c-0.161-0.036-0.323-0.054-0.54-0.054c-1.116,0-1.908,0.846-2.124,2.034
		c-0.036,0.216-0.072,0.469-0.072,0.738v4.646h-1.566V194.452z"/>
	<path d="M740.461,191.733l1.908,5.149c0.198,0.576,0.414,1.261,0.559,1.783h0.036c0.162-0.522,0.342-1.188,0.558-1.818l1.729-5.114
		h1.675l-2.377,6.212c-1.134,2.989-1.908,4.52-2.988,5.456c-0.774,0.684-1.549,0.954-1.945,1.026l-0.396-1.333
		c0.396-0.126,0.918-0.378,1.386-0.774c0.433-0.342,0.973-0.954,1.333-1.764c0.072-0.162,0.126-0.288,0.126-0.379
		c0-0.09-0.036-0.216-0.108-0.414l-3.223-8.03H740.461z"/>
</g>
<g>
	<path d="M666.053,249.244l-0.126-1.099h-0.054c-0.486,0.685-1.423,1.297-2.665,1.297c-1.765,0-2.665-1.242-2.665-2.503
		c0-2.106,1.873-3.259,5.24-3.241v-0.18c0-0.721-0.198-2.017-1.98-2.017c-0.811,0-1.657,0.252-2.27,0.648l-0.359-1.045
		c0.72-0.468,1.764-0.774,2.862-0.774c2.665,0,3.313,1.819,3.313,3.565v3.259c0,0.757,0.036,1.495,0.144,2.089H666.053z
		 M665.819,244.797c-1.729-0.036-3.69,0.271-3.69,1.963c0,1.026,0.684,1.512,1.494,1.512c1.135,0,1.854-0.72,2.106-1.458
		c0.055-0.162,0.09-0.342,0.09-0.504V244.797z"/>
	<path d="M669.904,242.889c0-0.9-0.019-1.639-0.072-2.359h1.387l0.072,1.404h0.054c0.486-0.828,1.296-1.603,2.736-1.603
		c1.188,0,2.089,0.721,2.467,1.747h0.036c0.271-0.486,0.612-0.864,0.973-1.135c0.522-0.396,1.099-0.612,1.927-0.612
		c1.152,0,2.862,0.757,2.862,3.781v5.132h-1.548v-4.934c0-1.675-0.612-2.683-1.891-2.683c-0.9,0-1.603,0.666-1.873,1.44
		c-0.072,0.216-0.126,0.504-0.126,0.792v5.384h-1.548v-5.222c0-1.387-0.612-2.395-1.819-2.395c-0.99,0-1.71,0.792-1.962,1.584
		c-0.091,0.234-0.126,0.505-0.126,0.774v5.258h-1.549V242.889z"/>
	<path d="M685.797,245.175c0.036,2.143,1.404,3.025,2.989,3.025c1.135,0,1.818-0.198,2.413-0.45l0.27,1.134
		c-0.558,0.252-1.513,0.54-2.898,0.54c-2.683,0-4.285-1.765-4.285-4.393c0-2.629,1.548-4.7,4.087-4.7
		c2.845,0,3.601,2.503,3.601,4.105c0,0.324-0.035,0.576-0.054,0.738H685.797z M690.443,244.041c0.019-1.009-0.414-2.575-2.196-2.575
		c-1.603,0-2.305,1.477-2.431,2.575H690.443z"/>
	<path d="M693.933,242.889c0-0.9-0.019-1.639-0.072-2.359h1.404l0.091,1.44h0.035c0.433-0.828,1.44-1.639,2.881-1.639
		c1.207,0,3.079,0.721,3.079,3.71v5.203h-1.584v-5.023c0-1.404-0.522-2.575-2.017-2.575c-1.045,0-1.854,0.738-2.125,1.621
		c-0.072,0.198-0.108,0.468-0.108,0.738v5.239h-1.584V242.889z"/>
	<path d="M705.688,238.081c0.018,0.54-0.378,0.972-1.009,0.972c-0.558,0-0.954-0.432-0.954-0.972c0-0.559,0.414-0.99,0.99-0.99
		C705.31,237.091,705.688,237.522,705.688,238.081z M703.923,249.244v-8.715h1.584v8.715H703.923z"/>
	<path d="M710.043,238.026v2.503h2.269v1.207h-2.269v4.699c0,1.08,0.307,1.692,1.188,1.692c0.414,0,0.721-0.054,0.919-0.108
		l0.071,1.188c-0.306,0.126-0.792,0.216-1.404,0.216c-0.738,0-1.332-0.233-1.71-0.666c-0.45-0.468-0.612-1.242-0.612-2.269v-4.753
		h-1.351v-1.207h1.351v-2.089L710.043,238.026z"/>
	<path d="M714.832,240.529l1.908,5.149c0.198,0.576,0.414,1.261,0.559,1.783h0.036c0.162-0.522,0.342-1.188,0.558-1.818l1.729-5.114
		h1.675l-2.377,6.212c-1.134,2.989-1.908,4.52-2.988,5.456c-0.774,0.684-1.549,0.954-1.945,1.026l-0.396-1.333
		c0.396-0.126,0.918-0.378,1.386-0.774c0.433-0.342,0.973-0.954,1.333-1.764c0.072-0.162,0.126-0.288,0.126-0.379
		c0-0.09-0.036-0.216-0.108-0.414l-3.223-8.03H714.832z"/>
	<path d="M722.139,243.177v-1.081h9.29v1.081H722.139z M722.139,246.705v-1.08h9.29v1.08H722.139z"/>
	<path d="M733.623,249.244v-7.508h-1.225v-1.207h1.225v-0.414c0-1.225,0.27-2.341,1.008-3.043c0.595-0.576,1.387-0.81,2.125-0.81
		c0.559,0,1.044,0.126,1.351,0.252l-0.216,1.224c-0.234-0.107-0.559-0.197-1.009-0.197c-1.351,0-1.692,1.188-1.692,2.521v0.468
		h2.106v1.207h-2.106v7.508H733.623z"/>
	<path d="M746.008,246.867c0,0.9,0.019,1.692,0.072,2.377h-1.404l-0.09-1.423h-0.036c-0.414,0.703-1.333,1.621-2.881,1.621
		c-1.369,0-3.007-0.757-3.007-3.817v-5.096h1.584v4.825c0,1.657,0.504,2.773,1.944,2.773c1.063,0,1.801-0.738,2.089-1.44
		c0.09-0.234,0.145-0.522,0.145-0.811v-5.348h1.584V246.867z"/>
	<path d="M749.516,245.175c0.036,2.143,1.404,3.025,2.989,3.025c1.135,0,1.818-0.198,2.413-0.45l0.27,1.134
		c-0.558,0.252-1.513,0.54-2.898,0.54c-2.683,0-4.285-1.765-4.285-4.393c0-2.629,1.548-4.7,4.087-4.7
		c2.845,0,3.601,2.503,3.601,4.105c0,0.324-0.035,0.576-0.054,0.738H749.516z M754.162,244.041c0.019-1.009-0.414-2.575-2.196-2.575
		c-1.603,0-2.305,1.477-2.431,2.575H754.162z"/>
	<path d="M757.652,236.46h1.584v12.784h-1.584V236.46z"/>
</g>
<g>
	<g>
		<g>
			<g>
				<line fill="none" stroke="#000000" stroke-miterlimit="10" x1="316.19" y1="89.615" x2="317.016" y2="90.181"/>
				
					<line fill="none" stroke="#000000" stroke-miterlimit="10" stroke-dasharray="1.993,1.993" x1="318.66" y1="91.307" x2="551.303" y2="250.689"/>
				<line fill="none" stroke="#000000" stroke-miterlimit="10" x1="552.125" y1="251.252" x2="552.951" y2="251.817"/>
			</g>
		</g>
		<g>
			<g>
				<polyline fill="none" stroke="#000000" stroke-miterlimit="10" points="565.961,155.428 566.777,156.007 566.023,156.664 				
					"/>
				
					<line fill="none" stroke="#000000" stroke-miterlimit="10" stroke-dasharray="1.9557,1.9557" x1="564.549" y1="157.949" x2="512.221" y2="203.576"/>
				<polyline fill="none" stroke="#000000" stroke-miterlimit="10" points="511.484,204.219 510.73,204.876 509.915,204.297 				"/>
				
					<line fill="none" stroke="#000000" stroke-miterlimit="10" stroke-dasharray="2.02,2.02" x1="508.267" y1="203.128" x2="486.031" y2="187.342"/>
				<polyline fill="none" stroke="#000000" stroke-miterlimit="10" points="485.208,186.758 484.392,186.179 485.146,185.521 				
					"/>
				
					<line fill="none" stroke="#000000" stroke-miterlimit="10" stroke-dasharray="2.0789,2.0789" x1="486.712" y1="184.155" x2="498.464" y2="173.909"/>
				<polyline fill="none" stroke="#000000" stroke-miterlimit="10" points="499.248,173.226 500.001,172.568 499.186,171.989 				
					"/>
				
					<line fill="none" stroke="#000000" stroke-miterlimit="10" stroke-dasharray="1.9958,1.9958" x1="497.558" y1="170.834" x2="426.764" y2="120.578"/>
				<polyline fill="none" stroke="#000000" stroke-miterlimit="10" points="425.95,120.001 425.135,119.422 425.889,118.765 				"/>
				
					<line fill="none" stroke="#000000" stroke-miterlimit="10" stroke-dasharray="2.066,2.066" x1="427.446" y1="117.407" x2="464.043" y2="85.502"/>
				<polyline fill="none" stroke="#000000" stroke-miterlimit="10" points="464.821,84.823 465.575,84.166 466.391,84.745 				"/>
				
					<line fill="none" stroke="#000000" stroke-miterlimit="10" stroke-dasharray="1.9074,1.9074" x1="467.946" y1="85.849" x2="492.053" y2="102.963"/>
				<polyline fill="none" stroke="#000000" stroke-miterlimit="10" points="492.831,103.515 493.646,104.094 494.4,103.437 				"/>
				
					<line fill="none" stroke="#000000" stroke-miterlimit="10" stroke-dasharray="1.8958,1.8958" x1="495.829" y1="102.19" x2="503.688" y2="95.338"/>
				<polyline fill="none" stroke="#000000" stroke-miterlimit="10" points="504.402,94.715 505.156,94.058 505.971,94.637 				"/>
				
					<line fill="none" stroke="#000000" stroke-miterlimit="10" stroke-dasharray="1.9602,1.9602" x1="507.57" y1="95.771" x2="545.133" y2="122.437"/>
				<polyline fill="none" stroke="#000000" stroke-miterlimit="10" points="545.932,123.004 546.748,123.583 545.994,124.24 				"/>
				
					<line fill="none" stroke="#000000" stroke-miterlimit="10" stroke-dasharray="1.8958,1.8958" x1="544.565" y1="125.486" x2="536.706" y2="132.339"/>
				<polyline fill="none" stroke="#000000" stroke-miterlimit="10" points="535.992,132.962 535.238,133.619 536.053,134.198 				
					"/>
				
					<line fill="none" stroke="#000000" stroke-miterlimit="10" stroke-dasharray="1.9304,1.9304" x1="537.627" y1="135.315" x2="565.174" y2="154.869"/>
			</g>
		</g>
		<g>
			<g>
				<g>
					<polyline fill="none" stroke="#000000" stroke-miterlimit="10" points="338.519,243.91 338.189,244.854 337.859,243.91 					
						"/>
					<path fill="none" stroke="#000000" stroke-miterlimit="10" stroke-dasharray="1.9589,1.9589" d="M337.213,242.062l-4.735-13.54
						c-0.962-0.966-1.541-2.179-1.541-3.504c0-3.136,3.233-5.68,7.22-5.68c3.985,0,7.216,2.544,7.216,5.68
						c0,1.274-0.535,2.449-1.435,3.396l-0.007,0.008l-5.088,14.564"/>
				</g>
			</g>
			<g>
				
					<ellipse fill="none" stroke="#000000" stroke-miterlimit="10" stroke-dasharray="2.0302,2.0302" cx="338.156" cy="224.546" rx="2.887" ry="2.271"/>
			</g>
		</g>
	</g>
</g>
</svg>
