<?xml version="1.0" encoding="utf-8"?>
<!-- Generator: Adobe Illustrator 16.0.0, SVG Export Plug-In . SVG Version: 6.00 Build 0)  -->
<!DOCTYPE svg PUBLIC "-//W3C//DTD SVG 1.1//EN" "http://www.w3.org/Graphics/SVG/1.1/DTD/svg11.dtd">
<svg version="1.1" id="Layer_1" xmlns="http://www.w3.org/2000/svg" xmlns:xlink="http://www.w3.org/1999/xlink" x="0px" y="0px"
	 width="864px" height="278px" viewBox="0 0 864 278" enable-background="new 0 0 864 278" xml:space="preserve">
<g>
	<path d="M26.61,35.847h-3.293v-12.41c-1.203,1.125-2.621,1.957-4.254,2.496v-2.988c0.859-0.281,1.793-0.814,2.801-1.6
		s1.699-1.701,2.074-2.748h2.672V35.847z"/>
	<path d="M32.235,35.847v-3.293h3.293v3.293H32.235z"/>
	<path d="M44.716,30.257l3.375-0.328c0.203,1.133,0.615,1.965,1.236,2.496s1.459,0.797,2.514,0.797c1.117,0,1.959-0.236,2.525-0.709
		s0.85-1.025,0.85-1.658c0-0.406-0.119-0.752-0.357-1.037s-0.654-0.533-1.248-0.744c-0.406-0.141-1.332-0.391-2.777-0.75
		c-1.859-0.461-3.164-1.027-3.914-1.699c-1.055-0.945-1.582-2.098-1.582-3.457c0-0.875,0.248-1.693,0.744-2.455
		s1.211-1.342,2.145-1.74s2.061-0.598,3.381-0.598c2.156,0,3.779,0.473,4.869,1.418s1.662,2.207,1.717,3.785l-3.469,0.152
		c-0.148-0.883-0.467-1.518-0.955-1.904s-1.221-0.58-2.197-0.58c-1.008,0-1.797,0.207-2.367,0.621
		c-0.367,0.266-0.551,0.621-0.551,1.066c0,0.406,0.172,0.754,0.516,1.043c0.438,0.367,1.5,0.75,3.188,1.148s2.936,0.811,3.744,1.236
		s1.441,1.008,1.898,1.746s0.686,1.65,0.686,2.736c0,0.984-0.273,1.906-0.82,2.766s-1.32,1.498-2.32,1.916s-2.246,0.627-3.738,0.627
		c-2.172,0-3.84-0.502-5.004-1.506S44.942,32.179,44.716,30.257z"/>
	<path d="M68.786,31.886l3.281,0.551c-0.422,1.203-1.088,2.119-1.998,2.748s-2.049,0.943-3.416,0.943
		c-2.164,0-3.766-0.707-4.805-2.121c-0.82-1.133-1.23-2.563-1.23-4.289c0-2.063,0.539-3.678,1.617-4.846s2.441-1.752,4.09-1.752
		c1.852,0,3.313,0.611,4.383,1.834s1.582,3.096,1.535,5.619h-8.25c0.023,0.977,0.289,1.736,0.797,2.279s1.141,0.814,1.898,0.814
		c0.516,0,0.949-0.141,1.301-0.422S68.606,32.511,68.786,31.886z M68.974,28.558c-0.023-0.953-0.27-1.678-0.738-2.174
		s-1.039-0.744-1.711-0.744c-0.719,0-1.313,0.262-1.781,0.785s-0.699,1.234-0.691,2.133H68.974z"/>
	<path d="M74.927,35.847v-17.18h3.293v17.18H74.927z"/>
	<path d="M88.802,31.886l3.281,0.551c-0.422,1.203-1.088,2.119-1.998,2.748s-2.049,0.943-3.416,0.943
		c-2.164,0-3.766-0.707-4.805-2.121c-0.82-1.133-1.23-2.563-1.23-4.289c0-2.063,0.539-3.678,1.617-4.846s2.441-1.752,4.09-1.752
		c1.852,0,3.313,0.611,4.383,1.834s1.582,3.096,1.535,5.619h-8.25c0.023,0.977,0.289,1.736,0.797,2.279s1.141,0.814,1.898,0.814
		c0.516,0,0.949-0.141,1.301-0.422S88.622,32.511,88.802,31.886z M88.989,28.558c-0.023-0.953-0.27-1.678-0.738-2.174
		s-1.039-0.744-1.711-0.744c-0.719,0-1.313,0.262-1.781,0.785s-0.699,1.234-0.691,2.133H88.989z"/>
	<path d="M105.794,27.081l-3.246,0.586c-0.109-0.648-0.357-1.137-0.744-1.465s-0.889-0.492-1.506-0.492
		c-0.82,0-1.475,0.283-1.963,0.85s-0.732,1.514-0.732,2.842c0,1.477,0.248,2.52,0.744,3.129s1.162,0.914,1.998,0.914
		c0.625,0,1.137-0.178,1.535-0.533s0.68-0.967,0.844-1.834l3.234,0.551c-0.336,1.484-0.98,2.605-1.934,3.363
		s-2.23,1.137-3.832,1.137c-1.82,0-3.271-0.574-4.354-1.723s-1.623-2.738-1.623-4.77c0-2.055,0.543-3.654,1.629-4.799
		s2.555-1.717,4.406-1.717c1.516,0,2.721,0.326,3.615,0.979S105.403,25.745,105.794,27.081z"/>
	<path d="M113.997,23.401v2.625h-2.25v5.016c0,1.016,0.021,1.607,0.064,1.775s0.141,0.307,0.293,0.416s0.338,0.164,0.557,0.164
		c0.305,0,0.746-0.105,1.324-0.316l0.281,2.555c-0.766,0.328-1.633,0.492-2.602,0.492c-0.594,0-1.129-0.1-1.605-0.299
		s-0.826-0.457-1.049-0.773s-0.377-0.744-0.463-1.283c-0.07-0.383-0.105-1.156-0.105-2.32v-5.426h-1.512v-2.625h1.512v-2.473
		l3.305-1.922v4.395H113.997z"/>
	<path d="M130.966,29.53v-2.895h7.477v6.844c-0.727,0.703-1.779,1.322-3.158,1.857s-2.775,0.803-4.189,0.803
		c-1.797,0-3.363-0.377-4.699-1.131s-2.34-1.832-3.012-3.234s-1.008-2.928-1.008-4.576c0-1.789,0.375-3.379,1.125-4.77
		s1.848-2.457,3.293-3.199c1.102-0.57,2.473-0.855,4.113-0.855c2.133,0,3.799,0.447,4.998,1.342s1.971,2.131,2.314,3.709
		l-3.445,0.645c-0.242-0.844-0.697-1.51-1.365-1.998s-1.502-0.732-2.502-0.732c-1.516,0-2.721,0.48-3.615,1.441
		s-1.342,2.387-1.342,4.277c0,2.039,0.453,3.568,1.359,4.588s2.094,1.529,3.563,1.529c0.727,0,1.455-0.143,2.186-0.428
		s1.357-0.631,1.881-1.037v-2.18H130.966z"/>
	<path d="M148.825,31.886l3.281,0.551c-0.422,1.203-1.088,2.119-1.998,2.748s-2.049,0.943-3.416,0.943
		c-2.164,0-3.766-0.707-4.805-2.121c-0.82-1.133-1.23-2.563-1.23-4.289c0-2.063,0.539-3.678,1.617-4.846s2.441-1.752,4.09-1.752
		c1.852,0,3.313,0.611,4.383,1.834s1.582,3.096,1.535,5.619h-8.25c0.023,0.977,0.289,1.736,0.797,2.279s1.141,0.814,1.898,0.814
		c0.516,0,0.949-0.141,1.301-0.422S148.646,32.511,148.825,31.886z M149.013,28.558c-0.023-0.953-0.27-1.678-0.738-2.174
		s-1.039-0.744-1.711-0.744c-0.719,0-1.313,0.262-1.781,0.785s-0.699,1.234-0.691,2.133H149.013z"/>
	<path d="M154.204,29.448c0-1.094,0.27-2.152,0.809-3.176s1.303-1.805,2.291-2.344s2.092-0.809,3.311-0.809
		c1.883,0,3.426,0.611,4.629,1.834s1.805,2.768,1.805,4.635c0,1.883-0.607,3.443-1.822,4.682s-2.744,1.857-4.588,1.857
		c-1.141,0-2.229-0.258-3.264-0.773s-1.822-1.271-2.361-2.268S154.204,30.878,154.204,29.448z M157.579,29.624
		c0,1.234,0.293,2.18,0.879,2.836s1.309,0.984,2.168,0.984s1.58-0.328,2.162-0.984s0.873-1.609,0.873-2.859
		c0-1.219-0.291-2.156-0.873-2.813s-1.303-0.984-2.162-0.984s-1.582,0.328-2.168,0.984S157.579,28.39,157.579,29.624z"/>
	<path d="M169.38,23.401h3.035v1.699c1.086-1.32,2.379-1.98,3.879-1.98c0.797,0,1.488,0.164,2.074,0.492s1.066,0.824,1.441,1.488
		c0.547-0.664,1.137-1.16,1.77-1.488s1.309-0.492,2.027-0.492c0.914,0,1.688,0.186,2.32,0.557s1.105,0.916,1.418,1.635
		c0.227,0.531,0.34,1.391,0.34,2.578v7.957h-3.293v-7.113c0-1.234-0.113-2.031-0.34-2.391c-0.305-0.469-0.773-0.703-1.406-0.703
		c-0.461,0-0.895,0.141-1.301,0.422s-0.699,0.693-0.879,1.236s-0.27,1.4-0.27,2.572v5.977h-3.293v-6.82
		c0-1.211-0.059-1.992-0.176-2.344s-0.299-0.613-0.545-0.785s-0.58-0.258-1.002-0.258c-0.508,0-0.965,0.137-1.371,0.41
		s-0.697,0.668-0.873,1.184s-0.264,1.371-0.264,2.566v6.047h-3.293V23.401z"/>
	<path d="M198.173,31.886l3.281,0.551c-0.422,1.203-1.088,2.119-1.998,2.748s-2.049,0.943-3.416,0.943
		c-2.164,0-3.766-0.707-4.805-2.121c-0.82-1.133-1.23-2.563-1.23-4.289c0-2.063,0.539-3.678,1.617-4.846s2.441-1.752,4.09-1.752
		c1.852,0,3.313,0.611,4.383,1.834s1.582,3.096,1.535,5.619h-8.25c0.023,0.977,0.289,1.736,0.797,2.279s1.141,0.814,1.898,0.814
		c0.516,0,0.949-0.141,1.301-0.422S197.993,32.511,198.173,31.886z M198.36,28.558c-0.023-0.953-0.27-1.678-0.738-2.174
		s-1.039-0.744-1.711-0.744c-0.719,0-1.313,0.262-1.781,0.785s-0.699,1.234-0.691,2.133H198.36z"/>
	<path d="M210.021,23.401v2.625h-2.25v5.016c0,1.016,0.021,1.607,0.064,1.775s0.141,0.307,0.293,0.416s0.338,0.164,0.557,0.164
		c0.305,0,0.746-0.105,1.324-0.316l0.281,2.555c-0.766,0.328-1.633,0.492-2.602,0.492c-0.594,0-1.129-0.1-1.605-0.299
		s-0.826-0.457-1.049-0.773s-0.377-0.744-0.463-1.283c-0.07-0.383-0.105-1.156-0.105-2.32v-5.426h-1.512v-2.625h1.512v-2.473
		l3.305-1.922v4.395H210.021z"/>
	<path d="M215.458,35.847h-3.293V23.401h3.059v1.77c0.523-0.836,0.994-1.387,1.412-1.652s0.893-0.398,1.424-0.398
		c0.75,0,1.473,0.207,2.168,0.621l-1.02,2.871c-0.555-0.359-1.07-0.539-1.547-0.539c-0.461,0-0.852,0.127-1.172,0.381
		s-0.572,0.713-0.756,1.377s-0.275,2.055-0.275,4.172V35.847z"/>
	<path d="M220.087,23.401h3.504l2.977,8.836l2.906-8.836h3.41l-4.395,11.977l-0.785,2.168c-0.289,0.727-0.564,1.281-0.826,1.664
		s-0.563,0.693-0.902,0.932s-0.758,0.424-1.254,0.557s-1.057,0.199-1.682,0.199c-0.633,0-1.254-0.066-1.863-0.199l-0.293-2.578
		c0.516,0.102,0.98,0.152,1.395,0.152c0.766,0,1.332-0.225,1.699-0.674s0.648-1.021,0.844-1.717L220.087,23.401z"/>
</g>
<g>
	<circle fill="#525659" stroke="#525659" stroke-width="3" stroke-miterlimit="10" cx="48.14" cy="72.125" r="25.765"/>
	<line fill="#525659" stroke="#FFFFFF" stroke-width="3" stroke-miterlimit="10" x1="48.14" y1="58.825" x2="48.14" y2="84.592"/>
	<line fill="#525659" stroke="#FFFFFF" stroke-width="3" stroke-miterlimit="10" x1="35.258" y1="71.708" x2="61.023" y2="71.708"/>
</g>
<line fill="#525659" stroke="#525659" stroke-width="3" stroke-miterlimit="10" x1="72.116" y1="84.592" x2="289.165" y2="84.455"/>
<g>
	<circle fill="#525659" stroke="#525659" stroke-width="3" stroke-miterlimit="10" cx="48.14" cy="151.047" r="25.765"/>
	<line fill="#525659" stroke="#FFFFFF" stroke-width="3" stroke-miterlimit="10" x1="48.14" y1="137.747" x2="48.14" y2="163.514"/>
	<line fill="#525659" stroke="#FFFFFF" stroke-width="3" stroke-miterlimit="10" x1="35.258" y1="150.63" x2="61.023" y2="150.63"/>
</g>
<line fill="#525659" stroke="#000000" stroke-width="3" stroke-miterlimit="10" x1="72.116" y1="163.514" x2="289.165" y2="163.377"/>
<g>
	<circle fill="#525659" stroke="#525659" stroke-width="3" stroke-miterlimit="10" cx="48.14" cy="223.547" r="25.765"/>
	<line fill="#525659" stroke="#FFFFFF" stroke-width="3" stroke-miterlimit="10" x1="48.14" y1="210.247" x2="48.14" y2="236.014"/>
	<line fill="#525659" stroke="#FFFFFF" stroke-width="3" stroke-miterlimit="10" x1="35.258" y1="223.13" x2="61.023" y2="223.13"/>
</g>
<line fill="#525659" stroke="#525659" stroke-width="3" stroke-miterlimit="10" x1="72.116" y1="236.014" x2="289.165" y2="235.877"/>
<g>
	<path d="M317.974,32.788v3.059h-11.543c0.125-1.156,0.5-2.252,1.125-3.287s1.859-2.408,3.703-4.119
		c1.484-1.383,2.395-2.32,2.73-2.813c0.453-0.68,0.68-1.352,0.68-2.016c0-0.734-0.197-1.299-0.592-1.693s-0.939-0.592-1.635-0.592
		c-0.688,0-1.234,0.207-1.641,0.621s-0.641,1.102-0.703,2.063l-3.281-0.328c0.195-1.813,0.809-3.113,1.84-3.902
		s2.32-1.184,3.867-1.184c1.695,0,3.027,0.457,3.996,1.371s1.453,2.051,1.453,3.41c0,0.773-0.139,1.51-0.416,2.209
		s-0.717,1.432-1.318,2.197c-0.398,0.508-1.117,1.238-2.156,2.191s-1.697,1.586-1.975,1.898s-0.502,0.617-0.674,0.914H317.974z"/>
	<path d="M320.903,35.847v-3.293h3.293v3.293H320.903z"/>
	<path d="M334.251,18.667h6.34c1.43,0,2.52,0.109,3.27,0.328c1.008,0.297,1.871,0.824,2.59,1.582s1.266,1.686,1.641,2.783
		s0.563,2.451,0.563,4.061c0,1.414-0.176,2.633-0.527,3.656c-0.43,1.25-1.043,2.262-1.84,3.035
		c-0.602,0.586-1.414,1.043-2.438,1.371c-0.766,0.242-1.789,0.363-3.07,0.363h-6.527V18.667z M337.72,21.573v11.379h2.59
		c0.969,0,1.668-0.055,2.098-0.164c0.563-0.141,1.029-0.379,1.4-0.715s0.674-0.889,0.908-1.658s0.352-1.818,0.352-3.146
		s-0.117-2.348-0.352-3.059s-0.563-1.266-0.984-1.664s-0.957-0.668-1.605-0.809c-0.484-0.109-1.434-0.164-2.848-0.164H337.72z"/>
	<path d="M351.571,21.714v-3.047h3.293v3.047H351.571z M351.571,35.847V23.401h3.293v12.445H351.571z"/>
	<path d="M357.935,36.667l3.762,0.457c0.063,0.438,0.207,0.738,0.434,0.902c0.313,0.234,0.805,0.352,1.477,0.352
		c0.859,0,1.504-0.129,1.934-0.387c0.289-0.172,0.508-0.449,0.656-0.832c0.102-0.273,0.152-0.777,0.152-1.512v-1.816
		c-0.984,1.344-2.227,2.016-3.727,2.016c-1.672,0-2.996-0.707-3.973-2.121c-0.766-1.117-1.148-2.508-1.148-4.172
		c0-2.086,0.502-3.68,1.506-4.781s2.252-1.652,3.744-1.652c1.539,0,2.809,0.676,3.809,2.027v-1.746h3.082v11.168
		c0,1.469-0.121,2.566-0.363,3.293s-0.582,1.297-1.02,1.711s-1.021,0.738-1.752,0.973s-1.654,0.352-2.771,0.352
		c-2.109,0-3.605-0.361-4.488-1.084s-1.324-1.639-1.324-2.748C357.923,36.956,357.927,36.823,357.935,36.667z M360.876,29.366
		c0,1.32,0.256,2.287,0.768,2.9s1.143,0.92,1.893,0.92c0.805,0,1.484-0.314,2.039-0.943s0.832-1.561,0.832-2.795
		c0-1.289-0.266-2.246-0.797-2.871s-1.203-0.938-2.016-0.938c-0.789,0-1.439,0.307-1.951,0.92S360.876,28.108,360.876,29.366z"/>
	<path d="M372.899,21.714v-3.047h3.293v3.047H372.899z M372.899,35.847V23.401h3.293v12.445H372.899z"/>
	<path d="M385.274,23.401v2.625h-2.25v5.016c0,1.016,0.021,1.607,0.064,1.775s0.141,0.307,0.293,0.416s0.338,0.164,0.557,0.164
		c0.305,0,0.746-0.105,1.324-0.316l0.281,2.555c-0.766,0.328-1.633,0.492-2.602,0.492c-0.594,0-1.129-0.1-1.605-0.299
		s-0.826-0.457-1.049-0.773s-0.377-0.744-0.463-1.283c-0.07-0.383-0.105-1.156-0.105-2.32v-5.426h-1.512v-2.625h1.512v-2.473
		l3.305-1.922v4.395H385.274z"/>
	<path d="M387.56,21.714v-3.047h3.293v3.047H387.56z M387.56,35.847V23.401h3.293v12.445H387.56z"/>
	<path d="M392.903,35.847V33.28l4.664-5.355c0.766-0.875,1.332-1.496,1.699-1.863c-0.383,0.023-0.887,0.039-1.512,0.047
		l-4.395,0.023v-2.73h10.289v2.332l-4.758,5.484l-1.676,1.816c0.914-0.055,1.48-0.082,1.699-0.082h5.098v2.895H392.903z"/>
	<path d="M413.435,31.886l3.281,0.551c-0.422,1.203-1.088,2.119-1.998,2.748s-2.049,0.943-3.416,0.943
		c-2.164,0-3.766-0.707-4.805-2.121c-0.82-1.133-1.23-2.563-1.23-4.289c0-2.063,0.539-3.678,1.617-4.846s2.441-1.752,4.09-1.752
		c1.852,0,3.313,0.611,4.383,1.834s1.582,3.096,1.535,5.619h-8.25c0.023,0.977,0.289,1.736,0.797,2.279s1.141,0.814,1.898,0.814
		c0.516,0,0.949-0.141,1.301-0.422S413.255,32.511,413.435,31.886z M413.622,28.558c-0.023-0.953-0.27-1.678-0.738-2.174
		s-1.039-0.744-1.711-0.744c-0.719,0-1.313,0.262-1.781,0.785s-0.699,1.234-0.691,2.133H413.622z"/>
	<path d="M426.22,35.847v-17.18h5.191l3.117,11.719l3.082-11.719h5.203v17.18h-3.223V22.323l-3.41,13.523h-3.34l-3.398-13.523
		v13.523H426.22z"/>
	<path d="M448.696,27.198l-2.988-0.539c0.336-1.203,0.914-2.094,1.734-2.672s2.039-0.867,3.656-0.867
		c1.469,0,2.563,0.174,3.281,0.521s1.225,0.789,1.518,1.324s0.439,1.518,0.439,2.947l-0.035,3.844c0,1.094,0.053,1.9,0.158,2.42
		s0.303,1.076,0.592,1.67h-3.258c-0.086-0.219-0.191-0.543-0.316-0.973c-0.055-0.195-0.094-0.324-0.117-0.387
		c-0.563,0.547-1.164,0.957-1.805,1.23s-1.324,0.41-2.051,0.41c-1.281,0-2.291-0.348-3.029-1.043s-1.107-1.574-1.107-2.637
		c0-0.703,0.168-1.33,0.504-1.881s0.807-0.973,1.412-1.266s1.479-0.549,2.619-0.768c1.539-0.289,2.605-0.559,3.199-0.809v-0.328
		c0-0.633-0.156-1.084-0.469-1.354s-0.902-0.404-1.77-0.404c-0.586,0-1.043,0.115-1.371,0.346S448.899,26.62,448.696,27.198z
		 M453.103,29.87c-0.422,0.141-1.09,0.309-2.004,0.504s-1.512,0.387-1.793,0.574c-0.43,0.305-0.645,0.691-0.645,1.16
		c0,0.461,0.172,0.859,0.516,1.195s0.781,0.504,1.313,0.504c0.594,0,1.16-0.195,1.699-0.586c0.398-0.297,0.66-0.66,0.785-1.09
		c0.086-0.281,0.129-0.816,0.129-1.605V29.87z"/>
	<path d="M459.489,23.401h3.07v1.828c0.398-0.625,0.938-1.133,1.617-1.523s1.434-0.586,2.262-0.586c1.445,0,2.672,0.566,3.679,1.699
		c1.008,1.133,1.512,2.711,1.512,4.734c0,2.078-0.508,3.693-1.523,4.846c-1.015,1.152-2.246,1.729-3.691,1.729
		c-0.688,0-1.311-0.137-1.869-0.41s-1.146-0.742-1.764-1.406v6.27h-3.293V23.401z M462.747,29.413c0,1.398,0.277,2.432,0.832,3.1
		s1.23,1.002,2.027,1.002c0.766,0,1.402-0.307,1.91-0.92s0.762-1.619,0.762-3.018c0-1.305-0.262-2.273-0.785-2.906
		s-1.172-0.949-1.945-0.949c-0.805,0-1.473,0.311-2.004,0.932S462.747,28.194,462.747,29.413z"/>
	<path d="M480.231,27.362c0-1.75,0.262-3.219,0.785-4.406c0.391-0.875,0.924-1.66,1.6-2.355s1.416-1.211,2.221-1.547
		c1.07-0.453,2.305-0.68,3.703-0.68c2.531,0,4.557,0.785,6.076,2.355s2.279,3.754,2.279,6.551c0,2.773-0.754,4.943-2.262,6.51
		s-3.523,2.35-6.047,2.35c-2.555,0-4.586-0.779-6.094-2.338S480.231,30.097,480.231,27.362z M483.805,27.245
		c0,1.945,0.449,3.42,1.348,4.424s2.039,1.506,3.422,1.506s2.518-0.498,3.404-1.494s1.33-2.49,1.33-4.482
		c0-1.969-0.432-3.438-1.295-4.406s-2.01-1.453-3.439-1.453s-2.582,0.49-3.457,1.471S483.805,25.269,483.805,27.245z"/>
	<path d="M499.438,35.847v-17.18h3.293v6.188c1.016-1.156,2.219-1.734,3.609-1.734c1.516,0,2.77,0.549,3.762,1.646
		s1.488,2.674,1.488,4.729c0,2.125-0.506,3.762-1.518,4.91s-2.24,1.723-3.686,1.723c-0.711,0-1.412-0.178-2.104-0.533
		s-1.287-0.881-1.787-1.576v1.828H499.438z M502.708,29.354c0,1.289,0.203,2.242,0.609,2.859c0.57,0.875,1.328,1.313,2.273,1.313
		c0.727,0,1.346-0.311,1.857-0.932s0.768-1.6,0.768-2.936c0-1.422-0.258-2.447-0.773-3.076s-1.176-0.943-1.98-0.943
		c-0.789,0-1.445,0.307-1.969,0.92S502.708,28.104,502.708,29.354z"/>
	<path d="M517.461,23.401V35.46c0,1.586-0.104,2.705-0.311,3.357s-0.605,1.162-1.195,1.529s-1.342,0.551-2.256,0.551
		c-0.328,0-0.682-0.029-1.061-0.088s-0.787-0.146-1.225-0.264l0.574-2.813c0.156,0.031,0.303,0.057,0.439,0.076
		s0.264,0.029,0.381,0.029c0.336,0,0.611-0.072,0.826-0.217s0.357-0.318,0.428-0.521s0.105-0.813,0.105-1.828V23.401H517.461z
		 M514.168,21.714v-3.047h3.293v3.047H514.168z"/>
	<path d="M528.114,31.886l3.281,0.551c-0.422,1.203-1.088,2.119-1.998,2.748s-2.049,0.943-3.416,0.943
		c-2.164,0-3.766-0.707-4.805-2.121c-0.82-1.133-1.23-2.563-1.23-4.289c0-2.063,0.539-3.678,1.617-4.846s2.441-1.752,4.09-1.752
		c1.852,0,3.313,0.611,4.383,1.834s1.582,3.096,1.535,5.619h-8.25c0.023,0.977,0.289,1.736,0.797,2.279s1.141,0.814,1.898,0.814
		c0.516,0,0.949-0.141,1.301-0.422S527.934,32.511,528.114,31.886z M528.301,28.558c-0.023-0.953-0.27-1.678-0.738-2.174
		s-1.039-0.744-1.711-0.744c-0.719,0-1.313,0.262-1.781,0.785s-0.699,1.234-0.691,2.133H528.301z"/>
	<path d="M545.106,27.081l-3.246,0.586c-0.109-0.648-0.357-1.137-0.744-1.465s-0.889-0.492-1.506-0.492
		c-0.82,0-1.475,0.283-1.963,0.85s-0.732,1.514-0.732,2.842c0,1.477,0.248,2.52,0.744,3.129s1.162,0.914,1.998,0.914
		c0.625,0,1.137-0.178,1.535-0.533s0.68-0.967,0.844-1.834l3.234,0.551c-0.336,1.484-0.98,2.605-1.934,3.363
		s-2.23,1.137-3.832,1.137c-1.82,0-3.271-0.574-4.354-1.723s-1.623-2.738-1.623-4.77c0-2.055,0.543-3.654,1.629-4.799
		s2.555-1.717,4.406-1.717c1.516,0,2.721,0.326,3.615,0.979S544.715,25.745,545.106,27.081z"/>
	<path d="M553.309,23.401v2.625h-2.25v5.016c0,1.016,0.021,1.607,0.064,1.775s0.141,0.307,0.293,0.416s0.338,0.164,0.557,0.164
		c0.305,0,0.746-0.105,1.324-0.316l0.281,2.555c-0.766,0.328-1.633,0.492-2.602,0.492c-0.594,0-1.129-0.1-1.605-0.299
		s-0.826-0.457-1.049-0.773s-0.377-0.744-0.463-1.283c-0.07-0.383-0.105-1.156-0.105-2.32v-5.426h-1.512v-2.625h1.512v-2.473
		l3.305-1.922v4.395H553.309z"/>
	<path d="M554.434,32.296l3.305-0.504c0.141,0.641,0.426,1.127,0.855,1.459s1.031,0.498,1.805,0.498
		c0.852,0,1.492-0.156,1.922-0.469c0.289-0.219,0.434-0.512,0.434-0.879c0-0.25-0.078-0.457-0.234-0.621
		c-0.164-0.156-0.531-0.301-1.102-0.434c-2.656-0.586-4.34-1.121-5.051-1.605c-0.984-0.672-1.477-1.605-1.477-2.801
		c0-1.078,0.426-1.984,1.277-2.719s2.172-1.102,3.961-1.102c1.703,0,2.969,0.277,3.797,0.832s1.398,1.375,1.711,2.461l-3.105,0.574
		c-0.133-0.484-0.385-0.855-0.756-1.113s-0.9-0.387-1.588-0.387c-0.867,0-1.488,0.121-1.863,0.363
		c-0.25,0.172-0.375,0.395-0.375,0.668c0,0.234,0.109,0.434,0.328,0.598c0.297,0.219,1.322,0.527,3.076,0.926
		s2.979,0.887,3.674,1.465c0.688,0.586,1.031,1.402,1.031,2.449c0,1.141-0.477,2.121-1.43,2.941s-2.363,1.23-4.23,1.23
		c-1.695,0-3.037-0.344-4.025-1.031S554.739,33.476,554.434,32.296z"/>
</g>
<g>
	<path d="M593.504,31.288l3.188-0.387c0.102,0.813,0.375,1.434,0.82,1.863s0.984,0.645,1.617,0.645c0.68,0,1.252-0.258,1.717-0.773
		s0.697-1.211,0.697-2.086c0-0.828-0.223-1.484-0.668-1.969s-0.988-0.727-1.629-0.727c-0.422,0-0.926,0.082-1.512,0.246l0.363-2.684
		c0.891,0.023,1.57-0.17,2.039-0.58s0.703-0.955,0.703-1.635c0-0.578-0.172-1.039-0.516-1.383s-0.801-0.516-1.371-0.516
		c-0.563,0-1.043,0.195-1.441,0.586s-0.641,0.961-0.727,1.711l-3.035-0.516c0.211-1.039,0.529-1.869,0.955-2.49
		s1.02-1.109,1.781-1.465s1.615-0.533,2.561-0.533c1.617,0,2.914,0.516,3.891,1.547c0.805,0.844,1.207,1.797,1.207,2.859
		c0,1.508-0.824,2.711-2.473,3.609c0.984,0.211,1.771,0.684,2.361,1.418s0.885,1.621,0.885,2.66c0,1.508-0.551,2.793-1.652,3.855
		s-2.473,1.594-4.113,1.594c-1.555,0-2.844-0.447-3.867-1.342S593.668,32.733,593.504,31.288z"/>
	<path d="M607.672,35.847v-3.293h3.293v3.293H607.672z"/>
	<path d="M624.899,35.847V21.573h-5.098v-2.906h13.652v2.906h-5.086v14.273H624.899z"/>
	<path d="M636.348,27.198l-2.988-0.539c0.336-1.203,0.914-2.094,1.734-2.672s2.039-0.867,3.656-0.867
		c1.469,0,2.563,0.174,3.281,0.521s1.225,0.789,1.518,1.324s0.439,1.518,0.439,2.947l-0.035,3.844c0,1.094,0.053,1.9,0.158,2.42
		s0.303,1.076,0.592,1.67h-3.258c-0.086-0.219-0.191-0.543-0.316-0.973c-0.055-0.195-0.094-0.324-0.117-0.387
		c-0.563,0.547-1.164,0.957-1.805,1.23s-1.324,0.41-2.051,0.41c-1.281,0-2.291-0.348-3.029-1.043s-1.107-1.574-1.107-2.637
		c0-0.703,0.168-1.33,0.504-1.881s0.807-0.973,1.412-1.266s1.479-0.549,2.619-0.768c1.539-0.289,2.605-0.559,3.199-0.809v-0.328
		c0-0.633-0.156-1.084-0.469-1.354s-0.902-0.404-1.77-0.404c-0.586,0-1.043,0.115-1.371,0.346S636.551,26.62,636.348,27.198z
		 M640.754,29.87c-0.422,0.141-1.09,0.309-2.004,0.504s-1.512,0.387-1.793,0.574c-0.43,0.305-0.645,0.691-0.645,1.16
		c0,0.461,0.172,0.859,0.516,1.195s0.781,0.504,1.313,0.504c0.594,0,1.16-0.195,1.699-0.586c0.398-0.297,0.66-0.66,0.785-1.09
		c0.086-0.281,0.129-0.816,0.129-1.605V29.87z"/>
	<path d="M646.93,36.667l3.762,0.457c0.063,0.438,0.207,0.738,0.434,0.902c0.313,0.234,0.805,0.352,1.477,0.352
		c0.859,0,1.504-0.129,1.934-0.387c0.289-0.172,0.508-0.449,0.656-0.832c0.102-0.273,0.152-0.777,0.152-1.512v-1.816
		c-0.984,1.344-2.227,2.016-3.727,2.016c-1.672,0-2.996-0.707-3.973-2.121c-0.766-1.117-1.148-2.508-1.148-4.172
		c0-2.086,0.502-3.68,1.506-4.781s2.252-1.652,3.744-1.652c1.539,0,2.809,0.676,3.809,2.027v-1.746h3.082v11.168
		c0,1.469-0.121,2.566-0.363,3.293s-0.582,1.297-1.02,1.711s-1.021,0.738-1.752,0.973s-1.654,0.352-2.771,0.352
		c-2.109,0-3.605-0.361-4.488-1.084s-1.324-1.639-1.324-2.748C646.918,36.956,646.922,36.823,646.93,36.667z M649.872,29.366
		c0,1.32,0.256,2.287,0.768,2.9s1.143,0.92,1.893,0.92c0.805,0,1.484-0.314,2.039-0.943s0.832-1.561,0.832-2.795
		c0-1.289-0.266-2.246-0.797-2.871s-1.203-0.938-2.016-0.938c-0.789,0-1.439,0.307-1.951,0.92S649.872,28.108,649.872,29.366z"/>
	<path d="M667.883,27.362c0-1.75,0.262-3.219,0.785-4.406c0.391-0.875,0.924-1.66,1.6-2.355s1.416-1.211,2.221-1.547
		c1.07-0.453,2.305-0.68,3.703-0.68c2.531,0,4.557,0.785,6.076,2.355s2.279,3.754,2.279,6.551c0,2.773-0.754,4.943-2.262,6.51
		s-3.523,2.35-6.047,2.35c-2.555,0-4.586-0.779-6.094-2.338S667.883,30.097,667.883,27.362z M671.458,27.245
		c0,1.945,0.449,3.42,1.348,4.424s2.039,1.506,3.422,1.506s2.518-0.498,3.404-1.494s1.33-2.49,1.33-4.482
		c0-1.969-0.432-3.438-1.295-4.406s-2.01-1.453-3.439-1.453s-2.582,0.49-3.457,1.471S671.458,25.269,671.458,27.245z"/>
	<path d="M687.09,35.847v-17.18h3.293v6.188c1.016-1.156,2.219-1.734,3.609-1.734c1.516,0,2.77,0.549,3.762,1.646
		s1.488,2.674,1.488,4.729c0,2.125-0.506,3.762-1.518,4.91s-2.24,1.723-3.686,1.723c-0.711,0-1.412-0.178-2.104-0.533
		s-1.287-0.881-1.787-1.576v1.828H687.09z M690.36,29.354c0,1.289,0.203,2.242,0.609,2.859c0.57,0.875,1.328,1.313,2.273,1.313
		c0.727,0,1.346-0.311,1.857-0.932s0.768-1.6,0.768-2.936c0-1.422-0.258-2.447-0.773-3.076s-1.176-0.943-1.98-0.943
		c-0.789,0-1.445,0.307-1.969,0.92S690.36,28.104,690.36,29.354z"/>
	<path d="M705.114,23.401V35.46c0,1.586-0.104,2.705-0.311,3.357s-0.605,1.162-1.195,1.529s-1.342,0.551-2.256,0.551
		c-0.328,0-0.682-0.029-1.061-0.088s-0.787-0.146-1.225-0.264l0.574-2.813c0.156,0.031,0.303,0.057,0.439,0.076
		s0.264,0.029,0.381,0.029c0.336,0,0.611-0.072,0.826-0.217s0.357-0.318,0.428-0.521s0.105-0.813,0.105-1.828V23.401H705.114z
		 M701.821,21.714v-3.047h3.293v3.047H701.821z"/>
	<path d="M715.766,31.886l3.281,0.551c-0.422,1.203-1.088,2.119-1.998,2.748s-2.049,0.943-3.416,0.943
		c-2.164,0-3.766-0.707-4.805-2.121c-0.82-1.133-1.23-2.563-1.23-4.289c0-2.063,0.539-3.678,1.617-4.846s2.441-1.752,4.09-1.752
		c1.852,0,3.313,0.611,4.383,1.834s1.582,3.096,1.535,5.619h-8.25c0.023,0.977,0.289,1.736,0.797,2.279s1.141,0.814,1.898,0.814
		c0.516,0,0.949-0.141,1.301-0.422S715.586,32.511,715.766,31.886z M715.954,28.558c-0.023-0.953-0.27-1.678-0.738-2.174
		s-1.039-0.744-1.711-0.744c-0.719,0-1.313,0.262-1.781,0.785s-0.699,1.234-0.691,2.133H715.954z"/>
	<path d="M732.758,27.081l-3.246,0.586c-0.109-0.648-0.357-1.137-0.744-1.465s-0.889-0.492-1.506-0.492
		c-0.82,0-1.475,0.283-1.963,0.85s-0.732,1.514-0.732,2.842c0,1.477,0.248,2.52,0.744,3.129s1.162,0.914,1.998,0.914
		c0.625,0,1.137-0.178,1.535-0.533s0.68-0.967,0.844-1.834l3.234,0.551c-0.336,1.484-0.98,2.605-1.934,3.363
		s-2.23,1.137-3.832,1.137c-1.82,0-3.271-0.574-4.354-1.723s-1.623-2.738-1.623-4.77c0-2.055,0.543-3.654,1.629-4.799
		s2.555-1.717,4.406-1.717c1.516,0,2.721,0.326,3.615,0.979S732.368,25.745,732.758,27.081z"/>
	<path d="M740.961,23.401v2.625h-2.25v5.016c0,1.016,0.021,1.607,0.064,1.775s0.141,0.307,0.293,0.416s0.338,0.164,0.557,0.164
		c0.305,0,0.746-0.105,1.324-0.316l0.281,2.555c-0.766,0.328-1.633,0.492-2.602,0.492c-0.594,0-1.129-0.1-1.605-0.299
		s-0.826-0.457-1.049-0.773s-0.377-0.744-0.463-1.283c-0.07-0.383-0.105-1.156-0.105-2.32v-5.426h-1.512v-2.625h1.512v-2.473
		l3.305-1.922v4.395H740.961z"/>
	<path d="M742.086,32.296l3.305-0.504c0.141,0.641,0.426,1.127,0.855,1.459s1.031,0.498,1.805,0.498
		c0.852,0,1.492-0.156,1.922-0.469c0.289-0.219,0.434-0.512,0.434-0.879c0-0.25-0.078-0.457-0.234-0.621
		c-0.164-0.156-0.531-0.301-1.102-0.434c-2.656-0.586-4.34-1.121-5.051-1.605c-0.984-0.672-1.477-1.605-1.477-2.801
		c0-1.078,0.426-1.984,1.277-2.719s2.172-1.102,3.961-1.102c1.703,0,2.969,0.277,3.797,0.832s1.398,1.375,1.711,2.461l-3.105,0.574
		c-0.133-0.484-0.385-0.855-0.756-1.113s-0.9-0.387-1.588-0.387c-0.867,0-1.488,0.121-1.863,0.363
		c-0.25,0.172-0.375,0.395-0.375,0.668c0,0.234,0.109,0.434,0.328,0.598c0.297,0.219,1.322,0.527,3.076,0.926
		s2.979,0.887,3.674,1.465c0.688,0.586,1.031,1.402,1.031,2.449c0,1.141-0.477,2.121-1.43,2.941s-2.363,1.23-4.23,1.23
		c-1.695,0-3.037-0.344-4.025-1.031S742.391,33.476,742.086,32.296z"/>
</g>
<g>
	<g>
		<path fill="none" stroke="#000000" stroke-miterlimit="10" d="M343.478,71.349"/>
	</g>
</g>
<g>
	<g>
		<g>
			<g>
				
					<line fill="none" stroke="#000000" stroke-width="3" stroke-miterlimit="10" x1="635.954" y1="244.775" x2="636.954" y2="244.775"/>
				
					<line fill="none" stroke="#000000" stroke-width="3" stroke-miterlimit="10" stroke-dasharray="2.0976,2.0976" x1="639.051" y1="244.775" x2="654.784" y2="244.775"/>
				
					<line fill="none" stroke="#000000" stroke-width="3" stroke-miterlimit="10" x1="655.833" y1="244.775" x2="656.833" y2="244.775"/>
				<g>
					<polygon points="641.929,249.861 636.84,244.775 641.929,239.689 637.611,239.689 632.525,244.775 637.611,249.861 					"/>
				</g>
			</g>
		</g>
		<g>
			<g>
				
					<line fill="none" stroke="#000000" stroke-width="3" stroke-miterlimit="10" x1="626.956" y1="112.455" x2="626.955" y2="113.455"/>
				
					<line fill="none" stroke="#000000" stroke-width="3" stroke-miterlimit="10" stroke-dasharray="2.0483,2.0483" x1="626.955" y1="115.504" x2="626.929" y2="184.121"/>
				
					<line fill="none" stroke="#000000" stroke-width="3" stroke-miterlimit="10" x1="626.928" y1="185.146" x2="626.928" y2="186.146"/>
				<g>
					<polygon points="621.867,118.429 626.955,113.342 632.039,118.433 632.041,114.114 626.957,109.026 621.869,114.11 					"/>
				</g>
			</g>
		</g>
		<g>
			<g>
				
					<line fill="none" stroke="#000000" stroke-width="3" stroke-miterlimit="10" x1="716.102" y1="111.903" x2="716.102" y2="110.903"/>
				
					<line fill="none" stroke="#000000" stroke-width="3" stroke-miterlimit="10" stroke-dasharray="1.9883,1.9883" x1="716.102" y1="108.915" x2="716.102" y2="74.119"/>
				
					<line fill="none" stroke="#000000" stroke-width="3" stroke-miterlimit="10" x1="716.102" y1="73.125" x2="716.102" y2="72.125"/>
				<g>
					<polygon points="721.188,105.928 716.102,111.017 711.016,105.928 711.016,110.246 716.102,115.332 721.188,110.246 					"/>
				</g>
			</g>
		</g>
		<g>
			
				<line fill="none" stroke="#000000" stroke-width="3" stroke-miterlimit="10" x1="607.158" y1="89.891" x2="843.917" y2="252.093"/>
			<polygon fill="#525659" stroke="#000000" stroke-width="3" stroke-miterlimit="10" points="857.744,156.282 801.697,205.151 
				775.359,186.454 790.969,172.844 716.102,119.697 756.542,84.441 784.614,104.369 796.123,94.333 837.715,123.858 
				826.205,133.895 			"/>
			<g>
				<path fill="#525659" stroke="#000000" stroke-width="3" stroke-miterlimit="10" d="M621.904,225.293
					c0-3.136,3.233-5.68,7.22-5.68c3.985,0,7.216,2.544,7.216,5.68c0,1.274-0.535,2.449-1.435,3.396l-0.007,0.008l-5.741,16.434
					l-5.712-16.333C622.483,227.831,621.904,226.618,621.904,225.293z"/>
				
					<ellipse fill="#525659" stroke="#000000" stroke-width="3" stroke-miterlimit="10" cx="629.123" cy="224.821" rx="2.887" ry="2.271"/>
			</g>
		</g>
	</g>
	<g>
		<path d="M647.742,69.114c0.036-0.594,0.072-1.477,0.072-2.251V56.33h1.566v5.474h0.036c0.558-0.972,1.566-1.603,2.971-1.603
			c2.161,0,3.691,1.801,3.673,4.447c0,3.115-1.962,4.664-3.907,4.664c-1.26,0-2.269-0.486-2.916-1.639h-0.055l-0.072,1.44H647.742z
			 M649.38,65.621c0,0.198,0.036,0.396,0.072,0.576c0.306,1.099,1.224,1.854,2.376,1.854c1.657,0,2.647-1.351,2.647-3.349
			c0-1.747-0.9-3.241-2.593-3.241c-1.08,0-2.089,0.738-2.413,1.944c-0.036,0.181-0.09,0.396-0.09,0.648V65.621z"/>
		<path d="M665.348,66.737c0,0.9,0.019,1.692,0.072,2.377h-1.404l-0.09-1.423h-0.036c-0.414,0.703-1.333,1.621-2.881,1.621
			c-1.369,0-3.007-0.757-3.007-3.817v-5.096h1.584v4.825c0,1.657,0.504,2.773,1.944,2.773c1.063,0,1.801-0.738,2.089-1.44
			c0.09-0.234,0.145-0.522,0.145-0.811v-5.348h1.584V66.737z"/>
		<path d="M669.739,57.951c0.018,0.54-0.378,0.972-1.009,0.972c-0.558,0-0.954-0.432-0.954-0.972c0-0.559,0.414-0.99,0.99-0.99
			C669.361,56.961,669.739,57.393,669.739,57.951z M667.974,69.114v-8.715h1.584v8.715H667.974z"/>
		<path d="M672.186,56.33h1.584v12.784h-1.584V56.33z"/>
		<path d="M683.96,56.33v10.533c0,0.774,0.018,1.657,0.072,2.251h-1.423l-0.072-1.513h-0.036c-0.485,0.973-1.548,1.711-2.971,1.711
			c-2.106,0-3.727-1.783-3.727-4.43c-0.019-2.898,1.782-4.682,3.907-4.682c1.332,0,2.232,0.631,2.628,1.333h0.036V56.33H683.96z
			 M682.375,63.946c0-0.197-0.018-0.468-0.071-0.666c-0.234-1.008-1.099-1.836-2.287-1.836c-1.639,0-2.61,1.44-2.61,3.366
			c0,1.765,0.864,3.224,2.574,3.224c1.063,0,2.035-0.702,2.323-1.891c0.054-0.216,0.071-0.433,0.071-0.685V63.946z"/>
		<path d="M688.351,57.951c0.018,0.54-0.378,0.972-1.009,0.972c-0.558,0-0.954-0.432-0.954-0.972c0-0.559,0.414-0.99,0.99-0.99
			C687.973,56.961,688.351,57.393,688.351,57.951z M686.586,69.114v-8.715h1.584v8.715H686.586z"/>
		<path d="M690.798,62.759c0-0.9-0.019-1.639-0.072-2.359h1.404l0.091,1.44h0.035c0.433-0.828,1.44-1.639,2.881-1.639
			c1.207,0,3.079,0.721,3.079,3.71v5.203h-1.584v-5.023c0-1.404-0.522-2.575-2.017-2.575c-1.045,0-1.854,0.738-2.125,1.621
			c-0.072,0.198-0.108,0.468-0.108,0.738v5.239h-1.584V62.759z"/>
		<path d="M708.296,60.399c-0.036,0.631-0.071,1.333-0.071,2.395v5.06c0,1.999-0.396,3.224-1.243,3.979
			c-0.846,0.792-2.07,1.044-3.169,1.044c-1.044,0-2.196-0.252-2.898-0.72l0.396-1.206c0.576,0.359,1.477,0.684,2.557,0.684
			c1.62,0,2.809-0.846,2.809-3.043V67.62h-0.036c-0.486,0.81-1.422,1.458-2.772,1.458c-2.161,0-3.709-1.836-3.709-4.249
			c0-2.953,1.926-4.628,3.925-4.628c1.513,0,2.341,0.793,2.719,1.513h0.036l0.072-1.314H708.296z M706.659,63.839
			c0-0.271-0.019-0.504-0.091-0.721c-0.288-0.918-1.062-1.674-2.214-1.674c-1.513,0-2.593,1.278-2.593,3.295
			c0,1.71,0.864,3.133,2.574,3.133c0.973,0,1.854-0.612,2.196-1.621c0.091-0.27,0.127-0.576,0.127-0.846V63.839z"/>
		<path d="M710.256,63.047v-1.081h9.29v1.081H710.256z M710.256,66.575v-1.08h9.29v1.08H710.256z"/>
		<path d="M726.403,69.114l-0.126-1.099h-0.054c-0.486,0.685-1.423,1.297-2.665,1.297c-1.765,0-2.665-1.242-2.665-2.503
			c0-2.106,1.873-3.259,5.24-3.241v-0.18c0-0.721-0.198-2.017-1.98-2.017c-0.811,0-1.657,0.252-2.27,0.648l-0.359-1.045
			c0.72-0.468,1.764-0.774,2.862-0.774c2.665,0,3.313,1.819,3.313,3.565v3.259c0,0.757,0.036,1.495,0.144,2.089H726.403z
			 M726.168,64.667c-1.729-0.036-3.69,0.271-3.69,1.963c0,1.026,0.684,1.512,1.494,1.512c1.135,0,1.854-0.72,2.106-1.458
			c0.055-0.162,0.09-0.342,0.09-0.504V64.667z"/>
		<path d="M730.253,63.244c0-1.116-0.036-2.017-0.072-2.845h1.423l0.072,1.495h0.035c0.648-1.063,1.675-1.693,3.098-1.693
			c2.106,0,3.69,1.783,3.69,4.43c0,3.133-1.908,4.682-3.961,4.682c-1.152,0-2.16-0.504-2.683-1.368h-0.036v4.735h-1.566V63.244z
			 M731.82,65.567c0,0.233,0.036,0.45,0.072,0.648c0.288,1.098,1.242,1.854,2.376,1.854c1.675,0,2.647-1.369,2.647-3.367
			c0-1.747-0.919-3.241-2.593-3.241c-1.08,0-2.089,0.774-2.395,1.963c-0.055,0.198-0.108,0.432-0.108,0.647V65.567z"/>
		<path d="M745.321,69.114l-0.126-1.099h-0.054c-0.486,0.685-1.423,1.297-2.665,1.297c-1.765,0-2.665-1.242-2.665-2.503
			c0-2.106,1.873-3.259,5.24-3.241v-0.18c0-0.721-0.198-2.017-1.98-2.017c-0.811,0-1.657,0.252-2.27,0.648l-0.359-1.045
			c0.72-0.468,1.764-0.774,2.862-0.774c2.665,0,3.313,1.819,3.313,3.565v3.259c0,0.757,0.036,1.495,0.144,2.089H745.321z
			 M745.086,64.667c-1.729-0.036-3.69,0.271-3.69,1.963c0,1.026,0.684,1.512,1.494,1.512c1.135,0,1.854-0.72,2.106-1.458
			c0.055-0.162,0.09-0.342,0.09-0.504V64.667z"/>
		<path d="M749.171,63.118c0-1.026-0.019-1.908-0.072-2.719h1.387l0.054,1.711h0.072c0.396-1.171,1.351-1.909,2.413-1.909
			c0.18,0,0.306,0.019,0.45,0.055v1.494c-0.162-0.036-0.324-0.054-0.541-0.054c-1.116,0-1.908,0.846-2.124,2.034
			c-0.036,0.216-0.072,0.469-0.072,0.738v4.646h-1.566V63.118z"/>
		<path d="M757.397,57.896v2.503h2.269v1.207h-2.269v4.699c0,1.08,0.307,1.692,1.188,1.692c0.414,0,0.721-0.054,0.919-0.108
			l0.071,1.188c-0.306,0.126-0.792,0.216-1.404,0.216c-0.738,0-1.332-0.233-1.71-0.666c-0.45-0.468-0.612-1.242-0.612-2.269v-4.753
			h-1.351v-1.207h1.351v-2.089L757.397,57.896z"/>
		<path d="M761.447,62.759c0-0.9-0.019-1.639-0.072-2.359h1.387l0.072,1.404h0.054c0.486-0.828,1.296-1.603,2.736-1.603
			c1.188,0,2.089,0.721,2.467,1.747h0.036c0.271-0.486,0.612-0.864,0.973-1.135c0.522-0.396,1.099-0.612,1.927-0.612
			c1.152,0,2.862,0.757,2.862,3.781v5.132h-1.548v-4.934c0-1.675-0.612-2.683-1.891-2.683c-0.9,0-1.603,0.666-1.873,1.44
			c-0.072,0.216-0.126,0.504-0.126,0.792v5.384h-1.548v-5.222c0-1.387-0.612-2.395-1.819-2.395c-0.99,0-1.71,0.792-1.962,1.584
			c-0.091,0.234-0.126,0.505-0.126,0.774v5.258h-1.549V62.759z"/>
		<path d="M777.34,65.045c0.036,2.143,1.404,3.025,2.989,3.025c1.135,0,1.818-0.198,2.413-0.45l0.27,1.134
			c-0.558,0.252-1.513,0.54-2.898,0.54c-2.683,0-4.285-1.765-4.285-4.393c0-2.629,1.548-4.7,4.087-4.7
			c2.845,0,3.601,2.503,3.601,4.105c0,0.324-0.035,0.576-0.054,0.738H777.34z M781.986,63.911c0.019-1.009-0.414-2.575-2.196-2.575
			c-1.603,0-2.305,1.477-2.431,2.575H781.986z"/>
		<path d="M785.476,62.759c0-0.9-0.019-1.639-0.072-2.359h1.404l0.091,1.44h0.035c0.433-0.828,1.44-1.639,2.881-1.639
			c1.207,0,3.079,0.721,3.079,3.71v5.203h-1.584v-5.023c0-1.404-0.522-2.575-2.017-2.575c-1.045,0-1.854,0.738-2.125,1.621
			c-0.072,0.198-0.108,0.468-0.108,0.738v5.239h-1.584V62.759z"/>
		<path d="M797.302,57.896v2.503h2.269v1.207h-2.269v4.699c0,1.08,0.307,1.692,1.188,1.692c0.414,0,0.721-0.054,0.918-0.108
			l0.072,1.188c-0.306,0.126-0.792,0.216-1.404,0.216c-0.738,0-1.332-0.233-1.71-0.666c-0.45-0.468-0.612-1.242-0.612-2.269v-4.753
			h-1.351v-1.207h1.351v-2.089L797.302,57.896z"/>
		<path d="M801.136,67.494c0.468,0.306,1.296,0.63,2.088,0.63c1.152,0,1.693-0.576,1.693-1.297c0-0.756-0.45-1.17-1.621-1.603
			c-1.566-0.558-2.305-1.422-2.305-2.466c0-1.405,1.135-2.558,3.007-2.558c0.883,0,1.656,0.253,2.143,0.541l-0.396,1.152
			c-0.343-0.217-0.973-0.505-1.783-0.505c-0.936,0-1.458,0.54-1.458,1.188c0,0.721,0.522,1.045,1.656,1.477
			c1.513,0.576,2.287,1.332,2.287,2.629c0,1.53-1.188,2.61-3.259,2.61c-0.955,0-1.837-0.233-2.449-0.594L801.136,67.494z"/>
	</g>
	<g>
		<path d="M595.814,187.664h1.584v5.438h0.036c0.252-0.449,0.648-0.846,1.135-1.116c0.468-0.27,1.026-0.45,1.62-0.45
			c1.171,0,3.043,0.721,3.043,3.728v5.186h-1.584v-5.006c0-1.404-0.522-2.593-2.017-2.593c-1.026,0-1.837,0.721-2.125,1.585
			c-0.09,0.216-0.108,0.45-0.108,0.756v5.258h-1.584V187.664z"/>
		<path d="M607.569,189.285c0.018,0.54-0.378,0.972-1.009,0.972c-0.558,0-0.954-0.432-0.954-0.972c0-0.559,0.414-0.99,0.99-0.99
			C607.191,188.295,607.569,188.727,607.569,189.285z M605.804,200.448v-8.715h1.584v8.715H605.804z"/>
		<path d="M617.524,191.733c-0.035,0.631-0.071,1.333-0.071,2.395v5.06c0,1.999-0.396,3.224-1.243,3.979
			c-0.846,0.792-2.07,1.044-3.169,1.044c-1.044,0-2.196-0.252-2.898-0.72l0.396-1.206c0.576,0.359,1.476,0.684,2.557,0.684
			c1.62,0,2.809-0.846,2.809-3.043v-0.972h-0.036c-0.486,0.81-1.422,1.458-2.772,1.458c-2.161,0-3.709-1.836-3.709-4.249
			c0-2.953,1.926-4.628,3.925-4.628c1.513,0,2.341,0.793,2.719,1.513h0.036l0.072-1.314H617.524z M615.886,195.173
			c0-0.271-0.019-0.504-0.091-0.721c-0.288-0.918-1.062-1.674-2.214-1.674c-1.513,0-2.593,1.278-2.593,3.295
			c0,1.71,0.864,3.133,2.574,3.133c0.973,0,1.854-0.612,2.197-1.621c0.09-0.27,0.126-0.576,0.126-0.846V195.173z"/>
		<path d="M620.078,187.664h1.584v5.438h0.036c0.252-0.449,0.648-0.846,1.135-1.116c0.468-0.27,1.026-0.45,1.62-0.45
			c1.171,0,3.043,0.721,3.043,3.728v5.186h-1.584v-5.006c0-1.404-0.522-2.593-2.017-2.593c-1.026,0-1.837,0.721-2.125,1.585
			c-0.09,0.216-0.108,0.45-0.108,0.756v5.258h-1.584V187.664z"/>
		<path d="M630.464,191.733l1.152,4.43c0.252,0.972,0.486,1.872,0.648,2.772h0.054c0.198-0.882,0.486-1.818,0.774-2.755l1.423-4.447
			h1.332l1.351,4.357c0.324,1.044,0.576,1.963,0.774,2.845h0.054c0.144-0.882,0.378-1.801,0.666-2.826l1.242-4.376h1.566
			l-2.809,8.715h-1.44l-1.332-4.159c-0.307-0.973-0.559-1.837-0.774-2.863h-0.036c-0.216,1.045-0.486,1.945-0.792,2.881
			l-1.404,4.142h-1.44l-2.629-8.715H630.464z"/>
		<path d="M647.835,200.448l-0.126-1.099h-0.054c-0.486,0.685-1.423,1.297-2.665,1.297c-1.765,0-2.665-1.242-2.665-2.503
			c0-2.106,1.873-3.259,5.24-3.241v-0.18c0-0.721-0.198-2.017-1.981-2.017c-0.81,0-1.656,0.252-2.269,0.648l-0.359-1.045
			c0.72-0.468,1.765-0.774,2.862-0.774c2.665,0,3.313,1.819,3.313,3.565v3.259c0,0.757,0.036,1.495,0.144,2.089H647.835z
			 M647.602,196.001c-1.729-0.036-3.691,0.271-3.691,1.963c0,1.026,0.684,1.512,1.494,1.512c1.135,0,1.854-0.72,2.106-1.458
			c0.055-0.162,0.091-0.342,0.091-0.504V196.001z"/>
		<path d="M652.119,191.733l1.908,5.149c0.198,0.576,0.414,1.261,0.559,1.783h0.036c0.162-0.522,0.342-1.188,0.558-1.818
			l1.729-5.114h1.675l-2.377,6.212c-1.134,2.989-1.908,4.52-2.988,5.456c-0.774,0.684-1.549,0.954-1.945,1.026l-0.396-1.333
			c0.396-0.126,0.918-0.378,1.386-0.774c0.433-0.342,0.973-0.954,1.333-1.764c0.072-0.162,0.126-0.288,0.126-0.379
			c0-0.09-0.036-0.216-0.108-0.414l-3.223-8.03H652.119z"/>
		<path d="M659.426,194.381V193.3h9.29v1.081H659.426z M659.426,197.909v-1.08h9.29v1.08H659.426z"/>
		<path d="M670.532,198.828c0.468,0.306,1.296,0.63,2.088,0.63c1.152,0,1.693-0.576,1.693-1.297c0-0.756-0.45-1.17-1.621-1.603
			c-1.566-0.558-2.305-1.422-2.305-2.466c0-1.405,1.135-2.558,3.007-2.558c0.883,0,1.657,0.253,2.143,0.541l-0.396,1.152
			c-0.343-0.217-0.973-0.505-1.783-0.505c-0.936,0-1.458,0.54-1.458,1.188c0,0.721,0.522,1.045,1.656,1.477
			c1.513,0.576,2.287,1.332,2.287,2.629c0,1.53-1.188,2.61-3.259,2.61c-0.955,0-1.837-0.233-2.449-0.594L670.532,198.828z"/>
		<path d="M678.757,196.379c0.036,2.143,1.405,3.025,2.989,3.025c1.135,0,1.818-0.198,2.413-0.45l0.27,1.134
			c-0.558,0.252-1.513,0.54-2.898,0.54c-2.683,0-4.285-1.765-4.285-4.393c0-2.629,1.548-4.7,4.087-4.7
			c2.845,0,3.601,2.503,3.601,4.105c0,0.324-0.035,0.576-0.054,0.738H678.757z M683.403,195.245
			c0.019-1.009-0.414-2.575-2.196-2.575c-1.603,0-2.305,1.477-2.431,2.575H683.403z"/>
		<path d="M693.105,200.124c-0.414,0.216-1.333,0.504-2.503,0.504c-2.629,0-4.339-1.782-4.339-4.447
			c0-2.683,1.836-4.627,4.681-4.627c0.937,0,1.765,0.234,2.197,0.45l-0.36,1.225c-0.378-0.217-0.973-0.414-1.837-0.414
			c-1.998,0-3.078,1.476-3.078,3.295c0,2.017,1.296,3.259,3.024,3.259c0.9,0,1.494-0.234,1.944-0.433L693.105,200.124z"/>
		<path d="M702.736,196.019c0,3.224-2.233,4.628-4.34,4.628c-2.358,0-4.177-1.729-4.177-4.483c0-2.917,1.908-4.628,4.321-4.628
			C701.042,191.535,702.736,193.354,702.736,196.019z M695.822,196.109c0,1.908,1.098,3.349,2.646,3.349
			c1.513,0,2.646-1.423,2.646-3.385c0-1.477-0.738-3.35-2.61-3.35C696.631,192.724,695.822,194.452,695.822,196.109z"/>
		<path d="M704.731,194.093c0-0.9-0.018-1.639-0.072-2.359h1.404l0.09,1.44h0.036c0.433-0.828,1.44-1.639,2.881-1.639
			c1.207,0,3.079,0.721,3.079,3.71v5.203h-1.584v-5.023c0-1.404-0.522-2.575-2.017-2.575c-1.045,0-1.854,0.738-2.125,1.621
			c-0.072,0.198-0.108,0.468-0.108,0.738v5.239h-1.584V194.093z"/>
		<path d="M722.248,187.664v10.533c0,0.774,0.018,1.657,0.072,2.251h-1.423l-0.072-1.513h-0.036
			c-0.485,0.973-1.548,1.711-2.971,1.711c-2.106,0-3.727-1.783-3.727-4.43c-0.019-2.898,1.782-4.682,3.907-4.682
			c1.332,0,2.232,0.631,2.628,1.333h0.036v-5.204H722.248z M720.663,195.28c0-0.197-0.018-0.468-0.071-0.666
			c-0.234-1.008-1.099-1.836-2.287-1.836c-1.639,0-2.61,1.44-2.61,3.366c0,1.765,0.864,3.224,2.574,3.224
			c1.063,0,2.035-0.702,2.323-1.891c0.054-0.216,0.071-0.433,0.071-0.685V195.28z"/>
		<path d="M729.699,200.448l-0.126-1.099h-0.054c-0.486,0.685-1.423,1.297-2.665,1.297c-1.765,0-2.665-1.242-2.665-2.503
			c0-2.106,1.873-3.259,5.24-3.241v-0.18c0-0.721-0.198-2.017-1.981-2.017c-0.81,0-1.656,0.252-2.269,0.648l-0.359-1.045
			c0.72-0.468,1.765-0.774,2.862-0.774c2.665,0,3.313,1.819,3.313,3.565v3.259c0,0.757,0.036,1.495,0.144,2.089H729.699z
			 M729.465,196.001c-1.729-0.036-3.691,0.271-3.691,1.963c0,1.026,0.684,1.512,1.494,1.512c1.135,0,1.854-0.72,2.106-1.458
			c0.055-0.162,0.091-0.342,0.091-0.504V196.001z"/>
		<path d="M733.549,194.452c0-1.026-0.018-1.908-0.072-2.719h1.387l0.054,1.711h0.072c0.396-1.171,1.351-1.909,2.413-1.909
			c0.18,0,0.306,0.019,0.449,0.055v1.494c-0.161-0.036-0.323-0.054-0.54-0.054c-1.116,0-1.908,0.846-2.124,2.034
			c-0.036,0.216-0.072,0.469-0.072,0.738v4.646h-1.566V194.452z"/>
		<path d="M740.461,191.733l1.908,5.149c0.198,0.576,0.414,1.261,0.559,1.783h0.036c0.162-0.522,0.342-1.188,0.558-1.818
			l1.729-5.114h1.675l-2.377,6.212c-1.134,2.989-1.908,4.52-2.988,5.456c-0.774,0.684-1.549,0.954-1.945,1.026l-0.396-1.333
			c0.396-0.126,0.918-0.378,1.386-0.774c0.433-0.342,0.973-0.954,1.333-1.764c0.072-0.162,0.126-0.288,0.126-0.379
			c0-0.09-0.036-0.216-0.108-0.414l-3.223-8.03H740.461z"/>
	</g>
	<g>
		<path d="M666.053,249.244l-0.126-1.099h-0.054c-0.486,0.685-1.423,1.297-2.665,1.297c-1.765,0-2.665-1.242-2.665-2.503
			c0-2.106,1.873-3.259,5.24-3.241v-0.18c0-0.721-0.198-2.017-1.98-2.017c-0.811,0-1.657,0.252-2.27,0.648l-0.359-1.045
			c0.72-0.468,1.764-0.774,2.862-0.774c2.665,0,3.313,1.819,3.313,3.565v3.259c0,0.757,0.036,1.495,0.144,2.089H666.053z
			 M665.819,244.797c-1.729-0.036-3.69,0.271-3.69,1.963c0,1.026,0.684,1.512,1.494,1.512c1.135,0,1.854-0.72,2.106-1.458
			c0.055-0.162,0.09-0.342,0.09-0.504V244.797z"/>
		<path d="M669.904,242.889c0-0.9-0.019-1.639-0.072-2.359h1.387l0.072,1.404h0.054c0.486-0.828,1.296-1.603,2.736-1.603
			c1.188,0,2.089,0.721,2.467,1.747h0.036c0.271-0.486,0.612-0.864,0.973-1.135c0.522-0.396,1.099-0.612,1.927-0.612
			c1.152,0,2.862,0.757,2.862,3.781v5.132h-1.548v-4.934c0-1.675-0.612-2.683-1.891-2.683c-0.9,0-1.603,0.666-1.873,1.44
			c-0.072,0.216-0.126,0.504-0.126,0.792v5.384h-1.548v-5.222c0-1.387-0.612-2.395-1.819-2.395c-0.99,0-1.71,0.792-1.962,1.584
			c-0.091,0.234-0.126,0.505-0.126,0.774v5.258h-1.549V242.889z"/>
		<path d="M685.797,245.175c0.036,2.143,1.404,3.025,2.989,3.025c1.135,0,1.818-0.198,2.413-0.45l0.27,1.134
			c-0.558,0.252-1.513,0.54-2.898,0.54c-2.683,0-4.285-1.765-4.285-4.393c0-2.629,1.548-4.7,4.087-4.7
			c2.845,0,3.601,2.503,3.601,4.105c0,0.324-0.035,0.576-0.054,0.738H685.797z M690.443,244.041
			c0.019-1.009-0.414-2.575-2.196-2.575c-1.603,0-2.305,1.477-2.431,2.575H690.443z"/>
		<path d="M693.933,242.889c0-0.9-0.019-1.639-0.072-2.359h1.404l0.091,1.44h0.035c0.433-0.828,1.44-1.639,2.881-1.639
			c1.207,0,3.079,0.721,3.079,3.71v5.203h-1.584v-5.023c0-1.404-0.522-2.575-2.017-2.575c-1.045,0-1.854,0.738-2.125,1.621
			c-0.072,0.198-0.108,0.468-0.108,0.738v5.239h-1.584V242.889z"/>
		<path d="M705.688,238.081c0.018,0.54-0.378,0.972-1.009,0.972c-0.558,0-0.954-0.432-0.954-0.972c0-0.559,0.414-0.99,0.99-0.99
			C705.31,237.091,705.688,237.522,705.688,238.081z M703.923,249.244v-8.715h1.584v8.715H703.923z"/>
		<path d="M710.043,238.026v2.503h2.269v1.207h-2.269v4.699c0,1.08,0.307,1.692,1.188,1.692c0.414,0,0.721-0.054,0.919-0.108
			l0.071,1.188c-0.306,0.126-0.792,0.216-1.404,0.216c-0.738,0-1.332-0.233-1.71-0.666c-0.45-0.468-0.612-1.242-0.612-2.269v-4.753
			h-1.351v-1.207h1.351v-2.089L710.043,238.026z"/>
		<path d="M714.832,240.529l1.908,5.149c0.198,0.576,0.414,1.261,0.559,1.783h0.036c0.162-0.522,0.342-1.188,0.558-1.818
			l1.729-5.114h1.675l-2.377,6.212c-1.134,2.989-1.908,4.52-2.988,5.456c-0.774,0.684-1.549,0.954-1.945,1.026l-0.396-1.333
			c0.396-0.126,0.918-0.378,1.386-0.774c0.433-0.342,0.973-0.954,1.333-1.764c0.072-0.162,0.126-0.288,0.126-0.379
			c0-0.09-0.036-0.216-0.108-0.414l-3.223-8.03H714.832z"/>
		<path d="M722.139,243.177v-1.081h9.29v1.081H722.139z M722.139,246.705v-1.08h9.29v1.08H722.139z"/>
		<path d="M733.623,249.244v-7.508h-1.225v-1.207h1.225v-0.414c0-1.225,0.27-2.341,1.008-3.043c0.595-0.576,1.387-0.81,2.125-0.81
			c0.559,0,1.044,0.126,1.351,0.252l-0.216,1.224c-0.234-0.107-0.559-0.197-1.009-0.197c-1.351,0-1.692,1.188-1.692,2.521v0.468
			h2.106v1.207h-2.106v7.508H733.623z"/>
		<path d="M746.008,246.867c0,0.9,0.019,1.692,0.072,2.377h-1.404l-0.09-1.423h-0.036c-0.414,0.703-1.333,1.621-2.881,1.621
			c-1.369,0-3.007-0.757-3.007-3.817v-5.096h1.584v4.825c0,1.657,0.504,2.773,1.944,2.773c1.063,0,1.801-0.738,2.089-1.44
			c0.09-0.234,0.145-0.522,0.145-0.811v-5.348h1.584V246.867z"/>
		<path d="M749.516,245.175c0.036,2.143,1.404,3.025,2.989,3.025c1.135,0,1.818-0.198,2.413-0.45l0.27,1.134
			c-0.558,0.252-1.513,0.54-2.898,0.54c-2.683,0-4.285-1.765-4.285-4.393c0-2.629,1.548-4.7,4.087-4.7
			c2.845,0,3.601,2.503,3.601,4.105c0,0.324-0.035,0.576-0.054,0.738H749.516z M754.162,244.041
			c0.019-1.009-0.414-2.575-2.196-2.575c-1.603,0-2.305,1.477-2.431,2.575H754.162z"/>
		<path d="M757.652,236.46h1.584v12.784h-1.584V236.46z"/>
	</g>
</g>
<g>
	<g>
		<g>
			<g>
				
					<line fill="none" stroke="#000000" stroke-width="3" stroke-miterlimit="10" x1="316.19" y1="89.615" x2="317.016" y2="90.181"/>
				
					<line fill="none" stroke="#000000" stroke-width="3" stroke-miterlimit="10" stroke-dasharray="1.993,1.993" x1="318.66" y1="91.307" x2="551.303" y2="250.689"/>
				
					<line fill="none" stroke="#000000" stroke-width="3" stroke-miterlimit="10" x1="552.125" y1="251.252" x2="552.951" y2="251.817"/>
			</g>
		</g>
		<g>
			<polygon fill="#525659" points="566.777,156.007 510.73,204.876 484.392,186.179 500.001,172.568 425.135,119.422 
				465.575,84.166 493.646,104.094 505.156,94.058 546.748,123.583 535.238,133.619 			"/>
			<g>
				<polyline fill="none" stroke="#000000" stroke-width="3" stroke-miterlimit="10" points="565.961,155.428 566.777,156.007 
					566.023,156.664 				"/>
				
					<line fill="none" stroke="#000000" stroke-width="3" stroke-miterlimit="10" stroke-dasharray="1.9557,1.9557" x1="564.549" y1="157.949" x2="512.221" y2="203.576"/>
				<polyline fill="none" stroke="#000000" stroke-width="3" stroke-miterlimit="10" points="511.484,204.219 510.73,204.876 
					509.915,204.297 				"/>
				
					<line fill="none" stroke="#000000" stroke-width="3" stroke-miterlimit="10" stroke-dasharray="2.02,2.02" x1="508.267" y1="203.128" x2="486.031" y2="187.342"/>
				<polyline fill="none" stroke="#000000" stroke-width="3" stroke-miterlimit="10" points="485.208,186.758 484.392,186.179 
					485.146,185.521 				"/>
				
					<line fill="none" stroke="#000000" stroke-width="3" stroke-miterlimit="10" stroke-dasharray="2.0789,2.0789" x1="486.712" y1="184.155" x2="498.464" y2="173.908"/>
				<polyline fill="none" stroke="#000000" stroke-width="3" stroke-miterlimit="10" points="499.248,173.226 500.001,172.568 
					499.186,171.989 				"/>
				
					<line fill="none" stroke="#000000" stroke-width="3" stroke-miterlimit="10" stroke-dasharray="1.9958,1.9958" x1="497.558" y1="170.834" x2="426.764" y2="120.578"/>
				<polyline fill="none" stroke="#000000" stroke-width="3" stroke-miterlimit="10" points="425.95,120.001 425.135,119.422 
					425.889,118.765 				"/>
				
					<line fill="none" stroke="#000000" stroke-width="3" stroke-miterlimit="10" stroke-dasharray="2.066,2.066" x1="427.446" y1="117.407" x2="464.043" y2="85.502"/>
				<polyline fill="none" stroke="#000000" stroke-width="3" stroke-miterlimit="10" points="464.821,84.823 465.575,84.166 
					466.391,84.745 				"/>
				
					<line fill="none" stroke="#000000" stroke-width="3" stroke-miterlimit="10" stroke-dasharray="1.9074,1.9074" x1="467.946" y1="85.849" x2="492.053" y2="102.963"/>
				<polyline fill="none" stroke="#000000" stroke-width="3" stroke-miterlimit="10" points="492.831,103.515 493.646,104.094 
					494.4,103.437 				"/>
				
					<line fill="none" stroke="#000000" stroke-width="3" stroke-miterlimit="10" stroke-dasharray="1.8958,1.8958" x1="495.829" y1="102.19" x2="503.688" y2="95.338"/>
				<polyline fill="none" stroke="#000000" stroke-width="3" stroke-miterlimit="10" points="504.402,94.715 505.156,94.058 
					505.971,94.637 				"/>
				
					<line fill="none" stroke="#000000" stroke-width="3" stroke-miterlimit="10" stroke-dasharray="1.9602,1.9602" x1="507.57" y1="95.771" x2="545.133" y2="122.437"/>
				<polyline fill="none" stroke="#000000" stroke-width="3" stroke-miterlimit="10" points="545.932,123.004 546.748,123.583 
					545.994,124.24 				"/>
				
					<line fill="none" stroke="#000000" stroke-width="3" stroke-miterlimit="10" stroke-dasharray="1.8958,1.8958" x1="544.565" y1="125.486" x2="536.706" y2="132.339"/>
				<polyline fill="none" stroke="#000000" stroke-width="3" stroke-miterlimit="10" points="535.992,132.962 535.238,133.619 
					536.053,134.198 				"/>
				
					<line fill="none" stroke="#000000" stroke-width="3" stroke-miterlimit="10" stroke-dasharray="1.9304,1.9304" x1="537.627" y1="135.315" x2="565.174" y2="154.869"/>
			</g>
		</g>
		<g>
			<g>
				<path fill="#525659" d="M330.937,225.018c0-3.136,3.233-5.68,7.22-5.68c3.985,0,7.216,2.544,7.216,5.68
					c0,1.274-0.535,2.449-1.435,3.396l-0.007,0.008l-5.741,16.434l-5.712-16.333C331.516,227.556,330.937,226.343,330.937,225.018z"
					/>
				<g>
					<polyline fill="none" stroke="#000000" stroke-width="3" stroke-miterlimit="10" points="338.519,243.91 338.189,244.854 
						337.859,243.91 					"/>
					<path fill="none" stroke="#000000" stroke-width="3" stroke-miterlimit="10" stroke-dasharray="1.9589,1.9589" d="
						M337.213,242.062l-4.735-13.54c-0.962-0.966-1.541-2.179-1.541-3.504c0-3.136,3.233-5.68,7.22-5.68
						c3.985,0,7.216,2.544,7.216,5.68c0,1.274-0.535,2.449-1.435,3.396l-0.007,0.008l-5.088,14.564"/>
				</g>
			</g>
			<g>
				<ellipse fill="#525659" cx="338.156" cy="224.546" rx="2.887" ry="2.271"/>
				
					<ellipse fill="none" stroke="#000000" stroke-width="3" stroke-miterlimit="10" stroke-dasharray="2.0302,2.0302" cx="338.156" cy="224.546" rx="2.887" ry="2.271"/>
			</g>
		</g>
	</g>
</g>
<g>
	<path d="M91.913,76.184v-17.18h5.566c2.109,0,3.484,0.086,4.125,0.258c0.984,0.258,1.809,0.818,2.473,1.682
		s0.996,1.979,0.996,3.346c0,1.055-0.191,1.941-0.574,2.66s-0.869,1.283-1.459,1.693s-1.189,0.682-1.799,0.814
		c-0.828,0.164-2.027,0.246-3.598,0.246h-2.262v6.48H91.913z M95.381,61.91v4.875h1.898c1.367,0,2.281-0.09,2.742-0.27
		s0.822-0.461,1.084-0.844s0.393-0.828,0.393-1.336c0-0.625-0.184-1.141-0.551-1.547s-0.832-0.66-1.395-0.762
		c-0.414-0.078-1.246-0.117-2.496-0.117H95.381z"/>
	<path d="M107.135,69.785c0-1.094,0.27-2.152,0.809-3.176s1.303-1.805,2.291-2.344s2.092-0.809,3.311-0.809
		c1.883,0,3.426,0.611,4.629,1.834s1.805,2.768,1.805,4.635c0,1.883-0.607,3.443-1.822,4.682s-2.744,1.857-4.588,1.857
		c-1.141,0-2.229-0.258-3.264-0.773s-1.822-1.271-2.361-2.268S107.135,71.215,107.135,69.785z M110.51,69.961
		c0,1.234,0.293,2.18,0.879,2.836s1.309,0.984,2.168,0.984s1.58-0.328,2.162-0.984s0.873-1.609,0.873-2.859
		c0-1.219-0.291-2.156-0.873-2.813s-1.303-0.984-2.162-0.984s-1.582,0.328-2.168,0.984S110.51,68.727,110.51,69.961z"/>
	<path d="M122.557,62.051v-3.047h3.293v3.047H122.557z M122.557,76.184V63.738h3.293v12.445H122.557z"/>
	<path d="M140.545,76.184h-3.293v-6.352c0-1.344-0.07-2.213-0.211-2.607s-0.369-0.701-0.686-0.92s-0.697-0.328-1.143-0.328
		c-0.57,0-1.082,0.156-1.535,0.469s-0.764,0.727-0.932,1.242s-0.252,1.469-0.252,2.859v5.637h-3.293V63.738h3.059v1.828
		c1.086-1.406,2.453-2.109,4.102-2.109c0.727,0,1.391,0.131,1.992,0.393s1.057,0.596,1.365,1.002s0.523,0.867,0.645,1.383
		s0.182,1.254,0.182,2.215V76.184z"/>
	<path d="M149.592,63.738v2.625h-2.25v5.016c0,1.016,0.021,1.607,0.064,1.775s0.141,0.307,0.293,0.416s0.338,0.164,0.557,0.164
		c0.305,0,0.746-0.105,1.324-0.316l0.281,2.555c-0.766,0.328-1.633,0.492-2.602,0.492c-0.594,0-1.129-0.1-1.605-0.299
		s-0.826-0.457-1.049-0.773s-0.377-0.744-0.463-1.283c-0.07-0.383-0.105-1.156-0.105-2.32v-5.426h-1.512v-2.625h1.512v-2.473
		l3.305-1.922v4.395H149.592z"/>
</g>
<g>
	<path d="M92.006,155.487v-17.039h3.469v14.145h8.625v2.895H92.006z"/>
	<path d="M106.549,141.354v-3.047h3.293v3.047H106.549z M106.549,155.487v-12.445h3.293v12.445H106.549z"/>
	<path d="M124.538,155.487h-3.293v-6.352c0-1.344-0.07-2.213-0.211-2.607s-0.369-0.701-0.686-0.92s-0.697-0.328-1.143-0.328
		c-0.57,0-1.082,0.156-1.535,0.469s-0.764,0.727-0.932,1.242s-0.252,1.469-0.252,2.859v5.637h-3.293v-12.445h3.059v1.828
		c1.086-1.406,2.453-2.109,4.102-2.109c0.727,0,1.391,0.131,1.992,0.393s1.057,0.596,1.365,1.002s0.523,0.867,0.645,1.383
		s0.182,1.254,0.182,2.215V155.487z"/>
	<path d="M135.084,151.526l3.281,0.551c-0.422,1.203-1.088,2.119-1.998,2.748s-2.049,0.943-3.416,0.943
		c-2.164,0-3.766-0.707-4.805-2.121c-0.82-1.133-1.23-2.563-1.23-4.289c0-2.063,0.539-3.678,1.617-4.846s2.441-1.752,4.09-1.752
		c1.852,0,3.313,0.611,4.383,1.834s1.582,3.096,1.535,5.619h-8.25c0.023,0.977,0.289,1.736,0.797,2.279s1.141,0.814,1.898,0.814
		c0.516,0,0.949-0.141,1.301-0.422S134.905,152.151,135.084,151.526z M135.272,148.198c-0.023-0.953-0.27-1.678-0.738-2.174
		s-1.039-0.744-1.711-0.744c-0.719,0-1.313,0.262-1.781,0.785s-0.699,1.234-0.691,2.133H135.272z"/>
</g>
<g>
	<path d="M91.913,227.57v-17.18h5.566c2.109,0,3.484,0.086,4.125,0.258c0.984,0.258,1.809,0.818,2.473,1.682
		s0.996,1.979,0.996,3.346c0,1.055-0.191,1.941-0.574,2.66s-0.869,1.283-1.459,1.693s-1.189,0.682-1.799,0.814
		c-0.828,0.164-2.027,0.246-3.598,0.246h-2.262v6.48H91.913z M95.381,213.297v4.875h1.898c1.367,0,2.281-0.09,2.742-0.27
		s0.822-0.461,1.084-0.844s0.393-0.828,0.393-1.336c0-0.625-0.184-1.141-0.551-1.547s-0.832-0.66-1.395-0.762
		c-0.414-0.078-1.246-0.117-2.496-0.117H95.381z"/>
	<path d="M107.135,221.172c0-1.094,0.27-2.152,0.809-3.176s1.303-1.805,2.291-2.344s2.092-0.809,3.311-0.809
		c1.883,0,3.426,0.611,4.629,1.834s1.805,2.768,1.805,4.635c0,1.883-0.607,3.443-1.822,4.682s-2.744,1.857-4.588,1.857
		c-1.141,0-2.229-0.258-3.264-0.773s-1.822-1.271-2.361-2.268S107.135,222.602,107.135,221.172z M110.51,221.348
		c0,1.234,0.293,2.18,0.879,2.836s1.309,0.984,2.168,0.984s1.58-0.328,2.162-0.984s0.873-1.609,0.873-2.859
		c0-1.219-0.291-2.156-0.873-2.813s-1.303-0.984-2.162-0.984s-1.582,0.328-2.168,0.984S110.51,220.113,110.51,221.348z"/>
	<path d="M122.557,227.57v-17.18h3.293v17.18H122.557z"/>
	<path d="M127.667,215.125h3.504l2.977,8.836l2.906-8.836h3.41l-4.395,11.977l-0.785,2.168c-0.289,0.727-0.564,1.281-0.826,1.664
		s-0.563,0.693-0.902,0.932s-0.758,0.424-1.254,0.557s-1.057,0.199-1.682,0.199c-0.633,0-1.254-0.066-1.863-0.199l-0.293-2.578
		c0.516,0.102,0.98,0.152,1.395,0.152c0.766,0,1.332-0.225,1.699-0.674s0.648-1.021,0.844-1.717L127.667,215.125z"/>
	<path d="M142.268,228.391l3.762,0.457c0.063,0.438,0.207,0.738,0.434,0.902c0.313,0.234,0.805,0.352,1.477,0.352
		c0.859,0,1.504-0.129,1.934-0.387c0.289-0.172,0.508-0.449,0.656-0.832c0.102-0.273,0.152-0.777,0.152-1.512v-1.816
		c-0.984,1.344-2.227,2.016-3.727,2.016c-1.672,0-2.996-0.707-3.973-2.121c-0.766-1.117-1.148-2.508-1.148-4.172
		c0-2.086,0.502-3.68,1.506-4.781s2.252-1.652,3.744-1.652c1.539,0,2.809,0.676,3.809,2.027v-1.746h3.082v11.168
		c0,1.469-0.121,2.566-0.363,3.293s-0.582,1.297-1.02,1.711s-1.021,0.738-1.752,0.973s-1.654,0.352-2.771,0.352
		c-2.109,0-3.605-0.361-4.488-1.084s-1.324-1.639-1.324-2.748C142.256,228.68,142.26,228.547,142.268,228.391z M145.209,221.09
		c0,1.32,0.256,2.287,0.768,2.9s1.143,0.92,1.893,0.92c0.805,0,1.484-0.314,2.039-0.943s0.832-1.561,0.832-2.795
		c0-1.289-0.266-2.246-0.797-2.871s-1.203-0.938-2.016-0.938c-0.789,0-1.439,0.307-1.951,0.92S145.209,219.832,145.209,221.09z"/>
	<path d="M156.471,221.172c0-1.094,0.27-2.152,0.809-3.176s1.303-1.805,2.291-2.344s2.092-0.809,3.311-0.809
		c1.883,0,3.426,0.611,4.629,1.834s1.805,2.768,1.805,4.635c0,1.883-0.607,3.443-1.822,4.682s-2.744,1.857-4.588,1.857
		c-1.141,0-2.229-0.258-3.264-0.773s-1.822-1.271-2.361-2.268S156.471,222.602,156.471,221.172z M159.846,221.348
		c0,1.234,0.293,2.18,0.879,2.836s1.309,0.984,2.168,0.984s1.58-0.328,2.162-0.984s0.873-1.609,0.873-2.859
		c0-1.219-0.291-2.156-0.873-2.813s-1.303-0.984-2.162-0.984s-1.582,0.328-2.168,0.984S159.846,220.113,159.846,221.348z"/>
	<path d="M183.213,227.57h-3.293v-6.352c0-1.344-0.07-2.213-0.211-2.607s-0.369-0.701-0.686-0.92s-0.697-0.328-1.143-0.328
		c-0.57,0-1.082,0.156-1.535,0.469s-0.764,0.727-0.932,1.242s-0.252,1.469-0.252,2.859v5.637h-3.293v-12.445h3.059v1.828
		c1.086-1.406,2.453-2.109,4.102-2.109c0.727,0,1.391,0.131,1.992,0.393s1.057,0.596,1.365,1.002s0.523,0.867,0.645,1.383
		s0.182,1.254,0.182,2.215V227.57z"/>
</g>
</svg>
