<?xml version="1.0" encoding="utf-8"?>
<!-- Generator: Adobe Illustrator 16.0.0, SVG Export Plug-In . SVG Version: 6.00 Build 0)  -->
<!DOCTYPE svg PUBLIC "-//W3C//DTD SVG 1.1//EN" "http://www.w3.org/Graphics/SVG/1.1/DTD/svg11.dtd">
<svg version="1.1" id="Layer_1" xmlns="http://www.w3.org/2000/svg" xmlns:xlink="http://www.w3.org/1999/xlink" x="0px" y="0px"
	 width="296.918px" height="143.767px" viewBox="39.58 39.58 296.918 143.767" enable-background="new 39.58 39.58 296.918 143.767"
	 xml:space="preserve">
<rect x="39.58" y="63.523" fill="#00599D" width="281.279" height="119.824"/>
<rect x="296.918" y="39.58" fill="#FFDD00" width="39.58" height="119.824"/>
<g>
	<g>
		<defs>
			<rect id="SVGID_1_" width="375" height="222.926"/>
		</defs>
		<clipPath id="SVGID_2_">
			<use xlink:href="#SVGID_1_"  overflow="visible"/>
		</clipPath>
		<path clip-path="url(#SVGID_2_)" fill="#FFFFFF" d="M83.83,102.304c3.422-0.828,7.269-3.835,7.269-9.513
			c0-6.227-4.256-9.944-11.385-9.944H63.916l-0.393,0.393v32.559l0.393,0.392h5.643l0.393-0.392v-12.604l0.409-0.461l5.219,0.016
			l0.844,0.461l9.635,12.532l0.9,0.448h2.786l0.393-0.392v-4.694l-6.308-8.238V102.304z M79.714,97.266h-9.378l-0.384-0.377v-8.172
			l0.369-0.402h9.393c3.428,0,4.956,1.381,4.956,4.476C84.67,95.886,83.142,97.266,79.714,97.266"/>
	</g>
	<g>
		<defs>
			<rect id="SVGID_3_" width="375" height="222.926"/>
		</defs>
		<clipPath id="SVGID_4_">
			<use xlink:href="#SVGID_3_"  overflow="visible"/>
		</clipPath>
		<path clip-path="url(#SVGID_4_)" fill="#FFFFFF" d="M98.167,125.645c6.866,0,8.656-4.432,10.435-8.879l7.679-19.199v-4.715
			l-0.392-0.393h-4.202l-0.414,0.413l-5.865,16.619h-0.562l-5.848-16.619l-0.412-0.413h-4.202l-0.393,0.393v4.715l7.69,18.773
			l-0.008,0.529c-0.456,1.735-1.039,3.393-3.506,3.307h-2.83l-0.393,0.394v4.683l0.393,0.394L98.167,125.645L98.167,125.645z"/>
	</g>
	<g>
		<defs>
			<rect id="SVGID_5_" width="375" height="222.926"/>
		</defs>
		<clipPath id="SVGID_6_">
			<use xlink:href="#SVGID_5_"  overflow="visible"/>
		</clipPath>
		<path clip-path="url(#SVGID_6_)" fill="#FFFFFF" d="M140.946,106.579l0.392-0.393v-1.861c0-9.113-6.133-12.346-11.385-12.346
			s-11.385,3.233-11.385,12.346c0,5.695,3.107,12.347,11.866,12.347c8.012,0,9.622-5.264,9.933-7.009l-0.382-0.382h-5.644
			l-0.42,0.42c-0.473,0.914-1.838,1.503-3.487,1.503c-4.115,0-4.956-3.088-4.956-4.228l0.368-0.397H140.946L140.946,106.579z
			 M125.478,101.704c0-1.181,0.759-4.257,4.475-4.257c3.716,0,4.476,3.154,4.476,4.241l-0.364,0.384h-8.204L125.478,101.704z"/>
	</g>
	<g>
		<defs>
			<rect id="SVGID_7_" width="375" height="222.926"/>
		</defs>
		<clipPath id="SVGID_8_">
			<use xlink:href="#SVGID_7_"  overflow="visible"/>
		</clipPath>
		<path clip-path="url(#SVGID_8_)" fill="#FFFFFF" d="M151.752,94.632l-0.593-1.761l-0.411-0.412h-5.164l-0.392,0.393v22.945
			l0.392,0.394h5.644l0.393-0.394v-11.472c0-4.544,1.575-6.398,5.436-6.398h3.303l0.392-0.393v-4.682l-0.392-0.393h-2.822
			c-4.411,0-5.339,2.155-5.349,2.173H151.752z"/>
	</g>
	<g>
		<defs>
			<rect id="SVGID_9_" width="375" height="222.926"/>
		</defs>
		<clipPath id="SVGID_10_">
			<use xlink:href="#SVGID_9_"  overflow="visible"/>
		</clipPath>
		<path clip-path="url(#SVGID_10_)" fill="#FFFFFF" d="M175.486,102.07c-0.493-0.083-0.987-0.15-1.465-0.217
			c-2.376-0.327-4.427-0.611-4.427-2.334c0-1.726,1.344-2.072,3.514-2.072c2.383,0,3.472,0.472,3.513,1.528l0.394,0.394h5.644
			l0.392-0.393c-0.036-4.317-3.839-6.997-9.943-6.997c-6.226,0-9.944,2.639-9.944,7.059c0,4.009,3.031,6.546,9.007,7.543
			c0.378,0.063,0.74,0.117,1.083,0.169c2.318,0.351,3.849,0.583,3.849,2.381c0,1.858-2.28,2.073-3.995,2.073
			c-2.055,0-3.958-0.304-3.994-2.491l-0.394-0.393h-5.643l-0.393,0.393c0.032,4.911,4.021,7.959,10.424,7.959
			c5.039,0,10.423-1.981,10.423-7.542C183.531,103.411,178.098,102.505,175.486,102.07"/>
	</g>
	<g>
		<defs>
			<rect id="SVGID_11_" width="375" height="222.926"/>
		</defs>
		<clipPath id="SVGID_12_">
			<use xlink:href="#SVGID_11_"  overflow="visible"/>
		</clipPath>
		<path clip-path="url(#SVGID_12_)" fill="#FFFFFF" d="M198.122,91.979c-7.209,0-11.866,4.846-11.866,12.346
			c0,7.501,4.657,12.347,11.866,12.347c7.208,0,11.866-4.846,11.866-12.347C209.988,96.825,205.33,91.979,198.122,91.979
			 M198.122,111.204c-3.455,0-5.437-2.507-5.437-6.879c0-4.371,1.98-6.878,5.437-6.878s5.437,2.507,5.437,6.878
			C203.559,108.697,201.577,111.204,198.122,111.204"/>
	</g>
	<g>
		<defs>
			<rect id="SVGID_13_" width="375" height="222.926"/>
		</defs>
		<clipPath id="SVGID_14_">
			<use xlink:href="#SVGID_13_"  overflow="visible"/>
		</clipPath>
		<path clip-path="url(#SVGID_14_)" fill="#FFFFFF" d="M229.971,116.191h5.645l0.394-0.394V101.44c0-5.836-3.442-9.462-8.983-9.462
			c-2.476,0-4.803,0.872-6.351,2.59h-0.438l-0.553-1.698l-0.41-0.412h-5.164l-0.392,0.393v22.946l0.392,0.394h5.645l0.395-0.394
			v-11.954c0-4.246,1.828-6.398,5.437-6.398c2.612,0,3.995,1.547,3.995,4.475v13.876L229.971,116.191z"/>
	</g>
	<g>
		<defs>
			<rect id="SVGID_15_" width="375" height="222.926"/>
		</defs>
		<clipPath id="SVGID_16_">
			<use xlink:href="#SVGID_15_"  overflow="visible"/>
		</clipPath>
		<path clip-path="url(#SVGID_16_)" fill="#FFFFFF" d="M90.138,126.413l-0.393-0.394h-5.644l-0.392,0.394v20.125
			c0,5.201-2.314,7.84-6.879,7.84c-4.564,0-6.878-2.639-6.878-7.84v-20.125l-0.393-0.394h-5.643l-0.393,0.394v20.125
			c0,8.582,4.726,13.308,13.307,13.308c8.582,0,13.308-4.726,13.308-13.308V126.413z"/>
	</g>
	<g>
		<defs>
			<rect id="SVGID_17_" width="375" height="222.926"/>
		</defs>
		<clipPath id="SVGID_18_">
			<use xlink:href="#SVGID_17_"  overflow="visible"/>
		</clipPath>
		<polygon clip-path="url(#SVGID_18_)" fill="#FFFFFF" points="122.41,126.021 122.018,126.413 122.018,131.095 122.41,131.488 
			128.054,131.488 128.447,131.095 128.447,126.413 128.054,126.021 		"/>
	</g>
	<g>
		<defs>
			<rect id="SVGID_19_" width="375" height="222.926"/>
		</defs>
		<clipPath id="SVGID_20_">
			<use xlink:href="#SVGID_19_"  overflow="visible"/>
		</clipPath>
		<polygon clip-path="url(#SVGID_20_)" fill="#FFFFFF" points="128.053,159.364 128.446,158.972 128.446,136.025 128.053,135.631 
			122.409,135.631 122.017,136.025 122.017,158.972 122.409,159.364 		"/>
	</g>
	<g>
		<defs>
			<rect id="SVGID_21_" width="375" height="222.926"/>
		</defs>
		<clipPath id="SVGID_22_">
			<use xlink:href="#SVGID_21_"  overflow="visible"/>
		</clipPath>
		<polygon clip-path="url(#SVGID_22_)" fill="#FFFFFF" points="149.996,135.633 149.582,136.047 143.679,151.272 143.2,151.272 
			137.309,136.047 136.895,135.633 132.693,135.633 132.301,136.025 132.301,140.737 140.447,158.946 140.864,159.364 
			146.027,159.364 146.444,158.946 154.59,140.737 154.59,136.025 154.197,135.633 		"/>
	</g>
	<g>
		<defs>
			<rect id="SVGID_23_" width="375" height="222.926"/>
		</defs>
		<clipPath id="SVGID_24_">
			<use xlink:href="#SVGID_23_"  overflow="visible"/>
		</clipPath>
		<path clip-path="url(#SVGID_24_)" fill="#FFFFFF" d="M213.672,145.243c-0.494-0.082-0.986-0.15-1.467-0.217
			c-2.376-0.328-4.428-0.611-4.428-2.334c0-1.727,1.345-2.072,3.516-2.072c2.383,0,3.473,0.473,3.514,1.528l0.394,0.394h5.644
			l0.393-0.393c-0.035-4.316-3.838-6.997-9.941-6.997c-6.227,0-9.943,2.64-9.943,7.06c0,4.009,3.03,6.547,9.008,7.543
			c0.379,0.063,0.74,0.117,1.082,0.168c2.317,0.353,3.848,0.584,3.848,2.383c0,1.857-2.277,2.072-3.993,2.072
			c-2.058,0-3.961-0.303-3.995-2.491l-0.393-0.394h-5.645l-0.393,0.394c0.033,4.911,4.021,7.959,10.424,7.959
			c5.038,0,10.426-1.979,10.426-7.54C221.718,146.584,216.282,145.678,213.672,145.243"/>
	</g>
	<g>
		<defs>
			<rect id="SVGID_25_" width="375" height="222.926"/>
		</defs>
		<clipPath id="SVGID_26_">
			<use xlink:href="#SVGID_25_"  overflow="visible"/>
		</clipPath>
		<polygon clip-path="url(#SVGID_26_)" fill="#FFFFFF" points="231.605,159.364 232,158.972 232,136.025 231.605,135.631 
			225.963,135.631 225.57,136.025 225.57,158.972 225.963,159.364 		"/>
	</g>
	<g>
		<defs>
			<rect id="SVGID_27_" width="375" height="222.926"/>
		</defs>
		<clipPath id="SVGID_28_">
			<use xlink:href="#SVGID_27_"  overflow="visible"/>
		</clipPath>
		<polygon clip-path="url(#SVGID_28_)" fill="#FFFFFF" points="225.963,126.021 225.57,126.413 225.57,131.095 225.963,131.488 
			231.607,131.488 232,131.095 232,126.413 231.607,126.021 		"/>
	</g>
	<g>
		<defs>
			<rect id="SVGID_29_" width="375" height="222.926"/>
		</defs>
		<clipPath id="SVGID_30_">
			<use xlink:href="#SVGID_29_"  overflow="visible"/>
		</clipPath>
		<path clip-path="url(#SVGID_30_)" fill="#FFFFFF" d="M247.723,159.364h4.264l0.392-0.393v-4.684l-0.392-0.393h-4.264
			c-1.041,0-1.593-0.551-1.593-1.592v-10.813l0.388-0.392h5.469l0.392-0.394v-4.683l-0.392-0.394h-5.479l-0.378-0.387v-4.508
			l-0.394-0.393h-5.644l-0.394,0.393v4.508l-0.396,0.387h-3.535l-0.395,0.394v4.683l0.395,0.394h3.557l0.376,0.385v10.819
			C239.7,158.676,245.311,159.364,247.723,159.364"/>
	</g>
	<g>
		<defs>
			<rect id="SVGID_31_" width="375" height="222.926"/>
		</defs>
		<clipPath id="SVGID_32_">
			<use xlink:href="#SVGID_31_"  overflow="visible"/>
		</clipPath>
		<path clip-path="url(#SVGID_32_)" fill="#FFFFFF" d="M111.167,159.364h5.644l0.393-0.393v-14.357c0-5.836-3.442-9.462-8.983-9.462
			c-2.476,0-4.804,0.872-6.351,2.591h-0.437l-0.553-1.699l-0.411-0.412h-5.163l-0.393,0.395v22.946l0.393,0.394h5.643l0.394-0.394
			v-11.953c0-4.246,1.829-6.397,5.436-6.397c2.613,0,3.995,1.547,3.995,4.476v13.876L111.167,159.364z"/>
	</g>
	<g>
		<defs>
			<rect id="SVGID_33_" width="375" height="222.926"/>
		</defs>
		<clipPath id="SVGID_34_">
			<use xlink:href="#SVGID_33_"  overflow="visible"/>
		</clipPath>
		<path clip-path="url(#SVGID_34_)" fill="#FFFFFF" d="M179.131,149.75l0.392-0.392v-1.86c0-9.112-6.133-12.347-11.385-12.347
			s-11.385,3.233-11.385,12.347c0,5.694,3.107,12.348,11.866,12.348c8.012,0,9.622-5.266,9.933-7.01l-0.382-0.383h-5.644l-0.42,0.42
			c-0.473,0.914-1.838,1.504-3.487,1.504c-4.115,0-4.956-3.088-4.956-4.229l0.368-0.398H179.131L179.131,149.75z M163.664,144.877
			c0-1.182,0.759-4.258,4.475-4.258c3.716,0,4.476,3.154,4.476,4.241l-0.364,0.384h-8.204L163.664,144.877z"/>
	</g>
	<g>
		<defs>
			<rect id="SVGID_35_" width="375" height="222.926"/>
		</defs>
		<clipPath id="SVGID_36_">
			<use xlink:href="#SVGID_35_"  overflow="visible"/>
		</clipPath>
		<path clip-path="url(#SVGID_36_)" fill="#FFFFFF" d="M189.938,137.805l-0.594-1.762l-0.41-0.412h-5.165l-0.392,0.395v22.945
			l0.392,0.395h5.644l0.394-0.395v-11.473c0-4.545,1.574-6.397,5.437-6.397h3.303l0.394-0.394v-4.683l-0.394-0.394h-2.821
			c-4.412,0-5.34,2.154-5.35,2.173L189.938,137.805L189.938,137.805z"/>
	</g>
	<g>
		<defs>
			<rect id="SVGID_37_" width="375" height="222.926"/>
		</defs>
		<clipPath id="SVGID_38_">
			<use xlink:href="#SVGID_37_"  overflow="visible"/>
		</clipPath>
		<path clip-path="url(#SVGID_38_)" fill="#FFFFFF" d="M259.467,168.817c6.865,0,8.655-4.432,10.436-8.878l7.679-19.198v-4.716
			l-0.392-0.394h-4.203l-0.413,0.412l-5.865,16.619h-0.562l-5.85-16.619l-0.411-0.412h-4.202l-0.394,0.394v4.716l7.69,18.773
			l-0.008,0.527c-0.55,1.762-1.269,3.308-3.507,3.308h-2.343l-0.393,0.394v4.682l0.393,0.394L259.467,168.817L259.467,168.817z"/>
	</g>
</g>
</svg>
